<?xml version="1.0" encoding="UTF-8"?>
<!DOCTYPE svg PUBLIC "-//W3C//DTD SVG 1.1//EN" "http://www.w3.org/Graphics/SVG/1.1/DTD/svg11.dtd">
<svg version="1.1" xmlns="http://www.w3.org/2000/svg" xmlns:xlink="http://www.w3.org/1999/xlink" x="0" y="0" width="368.794" height="195.805" viewBox="0, 0, 368.794, 195.805">
  <defs>
    <radialGradient id="Gradient_1" gradientUnits="userSpaceOnUse" cx="84.788" cy="85.756" r="7.669" gradientTransform="matrix(0.75, 0, 0, 0.749, -1.031, -1.621)">
      <stop offset="0" stop-color="#FFAAAA"/>
      <stop offset="1" stop-color="#FFAAAA" stop-opacity="0"/>
    </radialGradient>
    <radialGradient id="Gradient_2" gradientUnits="userSpaceOnUse" cx="214.604" cy="81.796" r="9.618" gradientTransform="matrix(0.75, 0, 0, 0.75, -1.031, -1.682)">
      <stop offset="0" stop-color="#FFAAAA"/>
      <stop offset="1" stop-color="#FFAAAA" stop-opacity="0"/>
    </radialGradient>
    <radialGradient id="Gradient_3" gradientUnits="userSpaceOnUse" cx="271.988" cy="81.796" r="9.618" gradientTransform="matrix(0.75, 0, 0, 0.75, -1.031, -1.682)">
      <stop offset="0" stop-color="#FFAAAA"/>
      <stop offset="1" stop-color="#FFAAAA" stop-opacity="0"/>
    </radialGradient>
    <radialGradient id="Gradient_4" gradientUnits="userSpaceOnUse" cx="344.492" cy="105.988" r="9.618" gradientTransform="matrix(0.75, 0, 0, 0.75, -1.031, -1.682)">
      <stop offset="0" stop-color="#FFAAAA"/>
      <stop offset="1" stop-color="#FFAAAA" stop-opacity="0"/>
    </radialGradient>
    <radialGradient id="Gradient_5" gradientUnits="userSpaceOnUse" cx="412.532" cy="110.524" r="9.618" gradientTransform="matrix(0.75, 0, 0, 0.75, -1.031, -1.682)">
      <stop offset="0" stop-color="#FFAAAA"/>
      <stop offset="1" stop-color="#FFAAAA" stop-opacity="0"/>
    </radialGradient>
  </defs>
  <g id="Base">
    <path d="M310.069,154.624 C308.233,157.864 306.397,161.05 304.615,164.344 C302.455,168.394 300.349,172.552 298.189,176.602 C297.865,177.196 297.541,177.79 297.217,178.384 C296.623,179.41 296.407,180.436 296.785,181.624 C297.163,182.866 296.839,183.19 295.543,183.136 C295.111,183.136 294.679,183.136 294.463,183.352 C293.599,184.972 292.735,186.538 291.871,188.158 C291.601,188.644 291.385,189.184 291.115,189.67 C290.143,191.506 289.549,191.776 287.605,191.074 C286.309,190.642 285.121,190.102 283.879,189.508 C280.045,187.672 276.265,185.782 272.485,183.892 C269.677,182.488 266.815,181.138 264.007,179.734 C261.523,178.492 261.955,175.738 263.629,174.766 C264.223,174.388 265.141,174.28 265.843,174.388 C269.785,174.874 273.727,175.468 277.615,176.062 C278.695,176.224 279.721,176.332 281.017,176.494 C280.585,175.738 280.369,175.09 279.937,174.658 C279.127,173.794 279.559,173.47 280.369,173.038 C281.881,172.228 283.015,170.932 283.825,169.366 C286.471,164.182 289.117,158.998 291.709,153.814 C293.653,149.872 295.489,145.822 297.325,141.826 C294.355,140.26 291.493,138.748 288.577,137.236 C289.549,136.372 290.413,135.724 291.115,134.968 C291.493,134.59 291.763,133.888 291.709,133.348 C291.007,129.19 290.251,125.086 289.495,120.928 C289.495,120.82 289.387,120.766 289.495,120.874 C287.011,123.196 284.635,125.68 282.043,127.948 C279.181,130.378 275.941,132.052 272.215,132.97 C268.489,133.888 264.817,134.698 260.983,134.428 C258.661,134.266 256.339,134.158 254.017,133.942 C252.505,133.834 252.343,133.51 252.721,132.052 C253.747,128.434 254.773,124.762 255.853,120.928 C254.611,120.604 253.315,120.28 252.019,120.01 C251.803,119.956 251.533,120.28 251.317,120.442 C250.075,121.954 248.401,122.656 246.457,122.656 C245.269,122.656 244.135,122.602 242.947,122.44 C242.299,122.332 241.543,122.17 241.057,121.792 C239.275,120.388 237.385,119.254 235.495,118.12 C234.685,117.634 234.091,116.284 233.983,115.258 C233.551,111.586 234.577,108.184 236.413,104.998 C237.331,103.432 238.735,102.514 240.733,102.514 C239.815,100.192 238.789,97.924 238.087,95.548 C237.385,93.226 236.845,90.85 236.467,88.474 C236.197,86.908 236.845,85.828 237.925,85.396 C238.789,85.072 240.517,85.72 241.327,86.692 C242.947,88.636 243.541,90.958 244.189,93.334 C244.891,95.764 245.863,98.14 246.781,100.516 C247.483,102.298 249.049,103.216 250.777,103.918 C252.505,104.62 253.747,105.808 253.909,107.806 C254.017,109.372 254.017,110.884 254.179,112.45 C254.287,113.8 255.691,115.312 256.987,115.15 C260.227,114.826 263.305,115.798 266.545,115.636 C269.569,115.474 272.431,115.15 275.239,114.016 C278.965,112.504 282.313,110.398 285.769,108.022 C284.257,107.806 282.961,107.59 281.665,107.482 C277.021,107.05 272.485,105.97 268.327,103.81 C265.141,102.19 261.901,100.57 259.147,98.41 C256.771,96.574 254.881,93.982 252.829,91.714 C249.427,87.88 248.131,83.074 246.835,78.268 C246.835,78.214 246.727,78.16 246.619,77.998 C245.107,78.376 243.541,78.214 242.299,77.08 C239.815,74.812 237.979,70.87 239.329,67.684 C240.355,65.254 242.137,63.85 245.323,65.038 C245.052,63.526 244.783,62.122 244.513,60.664 C243.973,57.856 244.297,55.102 245.161,52.456 C246.457,48.406 248.617,44.842 251.371,41.656 C252.937,39.874 254.827,38.416 256.717,36.958 C257.851,36.094 259.309,35.77 260.767,36.148 C260.281,35.014 259.741,33.934 259.309,32.854 C258.769,31.558 259.254,29.992 260.335,29.128 C261.685,27.994 263.251,27.346 264.979,27.292 C267.301,27.184 269.353,26.374 271.459,25.51 C274.375,24.322 277.453,23.458 280.531,22.486 C282.421,21.892 284.365,21.406 286.309,21.028 C292.087,19.894 297.811,19.138 303.697,20.38 C309.367,21.568 314.443,24.106 319.033,27.4 C322.273,29.722 325.459,32.26 327.889,35.608 C330.157,38.794 332.533,41.872 334.477,45.22 C335.881,47.596 336.745,50.296 337.825,52.888 C338.743,55.102 339.715,57.316 340.363,59.584 C340.903,61.528 340.957,63.58 341.227,65.578 C341.227,65.686 341.227,65.794 341.227,65.902 C341.983,70.168 341.821,74.596 340.849,78.322 C339.121,84.64 336.259,90.364 332.371,95.602 C331.237,97.168 329.995,98.626 328.753,100.084 C328.375,100.516 327.781,100.84 327.187,101.272 C326.971,100.57 326.809,100.138 326.593,99.598 C325.675,100.138 324.865,100.678 324.001,101.11 C322.273,101.974 320.545,102.838 318.763,103.648 C318.6,103.756 318.223,103.648 318.061,103.54 C317.953,103.432 317.953,103.108 318.007,102.838 C318.061,102.46 318.223,102.136 318.331,101.65 C315.739,102.676 313.255,103.648 310.825,104.566 C310.825,104.62 310.825,104.728 310.825,104.782 C312.067,104.944 313.255,105.214 314.497,105.268 C317.251,105.376 320.059,105.484 322.813,105.484 C325.783,105.484 328.753,105.538 331.723,105.214 C334.369,104.944 337.015,104.188 339.661,103.81 C341.12,103.594 342.631,103.702 344.143,103.702 C344.845,103.702 347.113,102.568 347.546,101.758 C349.112,99.112 349.543,96.142 350.246,93.226 C350.732,91.282 351.056,89.338 351.326,87.394 C351.542,85.882 351.65,84.316 351.866,82.804 C351.919,82.426 352.19,81.832 352.46,81.778 C352.784,81.67 353.323,81.94 353.594,82.21 C355.105,83.83 355.105,85.882 355.159,87.934 C355.214,90.094 355.159,92.2 355.159,94.468 C355.322,94.144 355.591,93.82 355.699,93.496 C356.672,90.958 357.643,88.366 358.616,85.828 C359.047,84.694 359.371,83.56 359.966,82.48 C360.235,81.94 360.938,81.616 361.478,81.184 C361.802,81.67 362.396,82.21 362.396,82.696 C362.449,84.802 362.342,86.962 362.288,89.014 C362.504,88.474 362.828,87.826 363.151,87.232 C363.53,86.476 363.853,85.612 364.34,84.964 C364.609,84.64 365.258,84.37 365.635,84.424 C365.96,84.478 366.392,85.126 366.337,85.504 C366.229,86.638 365.96,87.772 365.743,88.906 C365.69,89.122 365.69,89.338 365.798,89.662 C366.122,89.122 366.392,88.528 366.824,88.042 C367.04,87.772 367.526,87.448 367.85,87.502 C368.12,87.556 368.498,87.988 368.606,88.312 C368.767,88.96 368.875,89.716 368.714,90.31 C368.12,92.2 367.31,93.982 366.608,95.872 C366.176,96.952 365.744,98.086 365.474,99.22 C364.88,101.812 363.854,104.08 361.424,105.43 C362.396,106.294 362.18,107.374 361.91,108.4 C361.532,109.642 360.506,110.182 359.264,110.344 C357.428,110.614 355.916,109.696 354.458,108.832 C354.08,108.616 353.702,108.292 353.378,108.022 C352.028,107.05 350.732,106.51 349.112,107.752 C348.032,108.562 346.52,108.832 344.953,109.426 C345.656,111.586 346.304,113.746 347.114,115.852 C347.816,117.688 347.708,117.634 346.25,118.174 C343.982,119.092 341.606,119.092 339.175,118.606 C337.231,118.228 335.233,118.12 333.235,118.012 C328.105,117.796 322.975,117.364 317.899,116.284 C317.197,116.122 316.495,116.068 315.577,115.906 C315.955,116.446 316.171,116.878 316.495,117.256 C318.547,119.794 320.599,122.278 322.597,124.816 C323.137,125.464 323.731,125.626 324.487,125.302 C324.595,125.248 324.703,125.248 324.811,125.248 C327.349,124.492 327.349,124.492 328.429,127.03 C328.915,128.218 329.563,129.406 329.941,130.648 C330.157,131.296 329.995,132.106 329.887,132.808 C329.779,133.456 329.509,133.942 328.699,134.32 C327.349,134.914 326.269,136.048 324.973,136.966 C326.161,140.962 327.349,145.012 328.537,149.224 C330.211,148.576 331.939,147.874 333.613,147.226 C334.747,146.74 335.935,146.308 337.069,145.822 C337.879,145.444 338.473,145.606 338.797,146.416 C339.769,148.846 340.904,151.222 341.606,153.706 C342.578,156.892 343.226,160.186 343.928,163.426 C344.468,165.856 344.036,168.286 343.604,170.662 C343.333,172.012 343.118,173.308 342.037,174.388 C340.579,175.792 338.959,176.116 337.069,175.738 C335.287,175.36 333.505,174.82 332.911,172.93 C332.533,171.688 332.695,170.23 332.911,168.934 C333.235,166.882 332.803,164.992 332.263,162.994 C330.373,163.588 328.591,164.236 326.755,164.722 C324.379,165.37 321.949,165.91 319.573,166.396 C317.467,166.828 316.171,165.586 315.091,164.02 C313.039,160.996 311.311,157.864 310.663,154.246 C310.555,154.246 310.447,154.246 310.339,154.246 z" fill="#000000" id="path3993"/>
    <path d="M171.98,0.003 C171.569,-0.003 171.157,-0.001 170.745,0.011 C168.77,0.063 166.794,0.32 164.81,0.887 C160.814,2.021 156.871,3.316 153.523,5.854 C153.415,5.962 153.145,6.071 152.983,6.016 C150.445,5.584 148.016,6.124 145.694,7.042 C139.592,9.418 135.001,13.792 130.897,18.706 C127.495,22.756 125.173,27.401 123.229,32.315 C120.637,38.903 118.747,45.653 119.395,52.889 C119.611,55.481 120.043,58.072 120.529,60.664 C120.745,61.744 121.338,62.716 120.744,63.85 C120.474,64.336 120.584,65.039 120.692,65.633 C121.502,69.251 122.365,72.813 123.175,76.431 C123.283,77.025 123.715,77.782 122.527,78.214 C121.717,76.054 120.799,73.948 120.043,71.734 C119.341,69.682 118.477,67.739 117.073,66.065 C116.263,65.147 115.291,65.093 114.643,66.065 C113.941,67.037 113.725,68.386 112.321,68.71 C112.321,68.764 112.267,68.765 112.267,68.819 C111.619,70.439 110.701,72.058 110.269,73.732 C109.567,76.648 110.81,79.186 112.376,81.616 C113.24,82.912 113.995,84.316 114.643,85.774 C115.291,87.34 115.832,89.015 116.318,90.635 C117.614,94.847 122.689,96.358 126.091,95.764 C129.601,95.116 129.168,94.955 131.112,97.817 C131.22,97.979 131.33,98.194 131.438,98.356 C129.116,101.758 126.848,105.106 124.688,108.292 C126.74,109.21 128.575,110.021 130.411,110.885 C131.113,111.209 131.87,111.586 132.626,111.91 C135.488,112.99 138.296,114.07 141.374,114.556 C143.912,114.988 146.341,115.366 148.825,114.556 C151.579,113.692 154.279,112.667 156.979,111.749 C156.925,111.857 156.871,112.126 156.763,112.396 C154.819,117.094 152.119,121.306 149.095,125.302 C148.609,125.95 148.662,126.22 149.364,126.706 C151.038,127.84 152.658,129.19 154.494,130.54 C152.496,133.564 150.554,136.696 148.502,139.72 C147.53,141.124 147.421,141.125 148.771,142.313 C148.825,142.367 148.878,142.42 148.932,142.474 C151.038,143.932 153.091,145.552 155.359,146.794 C158.329,148.36 161.461,149.709 164.539,151.059 C165.241,151.383 165.565,151.654 165.673,152.41 C166.105,155.704 166.7,159.052 167.132,162.346 C167.456,164.668 166.699,166.612 165.133,168.286 C164.971,168.502 164.917,169.096 165.079,169.366 C166.267,171.31 168.048,172.336 170.37,172.282 C170.748,172.282 171.397,172.444 171.451,172.66 C171.559,173.308 171.613,174.064 171.397,174.604 C170.803,175.954 169.939,177.25 169.399,178.6 C169.129,179.356 168.968,180.274 169.13,181.084 C169.724,184.054 171.829,186.269 173.773,188.321 C177.283,191.885 181.872,192.64 186.678,191.722 C187.488,191.56 188.461,190.912 188.785,190.21 C189.325,189.022 189.757,187.619 189.703,186.323 C189.541,183.245 188.138,180.868 185.06,179.842 C183.278,179.248 181.765,178.492 180.631,176.98 C179.659,175.63 178.525,174.442 177.607,173.092 C177.283,172.606 176.796,171.742 177.552,171.148 C178.254,170.608 179.173,170.337 179.821,169.743 C180.415,169.311 180.954,168.61 181.116,167.908 C181.224,167.584 180.523,166.936 180.091,166.612 C178.687,165.586 177.391,164.506 177.013,162.724 C176.527,160.456 176.203,158.188 175.825,155.92 C175.717,154.948 175.716,153.922 175.608,152.842 L187.381,152.842 C188.137,154.462 189.002,156.136 189.812,157.918 C190.622,159.7 191.377,161.483 192.079,163.319 C192.619,164.723 193.267,166.127 192.349,167.639 C192.241,167.747 192.673,168.394 192.889,168.449 C194.617,168.773 196.345,169.042 198.073,169.366 C198.289,169.419 198.505,169.474 198.667,169.582 C199.747,170.5 200.233,173.47 199.531,174.712 C199.423,174.928 199.098,175.09 199.045,175.36 C198.559,177.52 197.046,178.87 195.426,180.112 C194.616,180.76 193.754,181.354 192.998,182.056 C191.432,183.568 190.566,185.404 191.052,187.672 C191.538,189.994 193.159,191.29 195.211,191.776 C198.073,192.532 200.988,192.478 203.796,191.02 C207.63,189.076 210.17,186.268 210.007,181.786 C209.953,179.896 209.305,177.951 208.765,176.061 C208.495,175.143 208.063,174.118 207.415,173.47 C206.011,172.12 205.146,170.554 204.552,168.718 C204.336,168.124 204.5,167.854 204.932,167.476 C205.742,166.774 206.443,165.964 207.037,165.1 C207.793,163.966 207.145,162.886 205.795,162.67 C203.905,162.346 202.124,161.753 201.368,159.701 C200.234,156.731 199.099,153.814 197.965,150.844 C197.803,150.52 197.856,150.087 197.802,149.871 C199.422,149.007 200.935,148.252 202.339,147.334 C203.959,146.254 205.417,144.959 206.983,143.825 C208.657,142.637 209.79,141.07 210.546,139.288 C210.817,138.694 211.033,137.776 210.763,137.236 C210.007,135.778 208.928,134.482 208.064,133.078 C207.038,131.512 206.119,129.839 205.201,128.327 C205.957,127.463 206.551,126.814 206.983,126.328 C205.471,123.52 204.013,120.874 202.663,118.228 C202.555,117.904 202.555,117.418 202.717,117.148 C203.905,115.096 205.147,112.989 206.389,110.937 C206.497,110.775 206.66,110.56 206.93,110.29 C207.524,112.288 207.253,114.232 208.009,115.96 C208.171,115.96 208.279,115.906 208.442,115.906 C208.226,114.016 207.954,112.125 207.738,110.181 C208.278,110.074 208.657,110.02 209.143,109.912 C209.683,112.126 210.169,114.232 210.655,116.392 C211.411,115.636 211.196,114.989 210.872,114.179 C210.278,112.775 210.114,111.263 209.736,109.751 C210.33,109.643 210.817,109.534 211.411,109.426 C211.519,109.804 211.626,110.074 211.734,110.398 C212.22,112.018 212.599,113.693 213.085,115.367 C213.139,115.583 213.463,115.744 213.626,115.906 C213.734,115.744 213.895,115.529 213.949,115.313 C213.949,115.043 213.895,114.773 213.841,114.557 L212.06,109.373 C213.896,108.725 213.895,108.724 214.381,110.29 C214.651,111.208 214.922,112.126 215.246,113.044 C215.408,113.53 215.623,113.962 215.785,114.394 C216.001,114.34 216.164,114.286 216.38,114.232 C215.894,112.396 215.029,110.614 214.651,108.67 C215.029,108.562 215.353,108.454 215.785,108.292 C216.001,108.886 216.218,109.372 216.38,109.858 C216.812,111.208 217.242,112.504 217.674,113.854 C217.782,114.07 218.053,114.232 218.215,114.394 C218.323,114.124 218.485,113.908 218.539,113.638 C218.539,113.476 218.377,113.26 218.323,113.044 C217.729,111.424 217.135,109.75 216.541,108.076 C217.189,107.914 217.675,107.752 218.269,107.59 C218.809,109.372 219.241,111.1 219.781,112.828 C219.889,113.152 220.16,113.423 220.376,113.693 C220.429,113.315 220.537,112.99 220.537,112.612 C220.537,112.45 220.376,112.289 220.321,112.127 C219.835,110.561 219.348,108.995 218.862,107.375 C219.402,107.267 219.889,107.158 220.537,107.05 C220.969,108.616 221.401,110.128 221.833,111.64 C221.941,111.91 222.21,112.126 222.426,112.342 C222.534,112.288 222.644,112.181 222.752,112.127 C222.212,110.345 221.726,108.616 221.186,106.834 C221.564,106.834 222.049,106.834 222.535,106.78 C222.751,107.482 222.914,108.022 223.13,108.616 C223.508,109.804 223.938,110.939 224.37,112.073 C224.424,112.289 224.749,112.397 224.965,112.505 C225.019,112.289 225.127,112.018 225.073,111.802 C225.02,111.586 224.804,111.478 224.75,111.263 C224.21,109.75 223.67,108.184 223.13,106.672 C223.238,106.564 223.345,106.51 223.453,106.402 C223.777,106.564 224.262,106.618 224.37,106.834 C224.964,108.076 225.398,109.372 225.938,110.614 C226.046,110.938 226.26,111.262 226.422,111.586 C226.53,111.532 226.64,111.477 226.748,111.424 C226.694,109.48 225.451,107.914 224.965,106.078 C225.505,105.808 226.046,105.592 226.748,105.268 C227.288,106.888 227.774,108.454 228.314,110.02 C228.368,110.236 228.691,110.397 228.907,110.559 C228.907,110.289 229.015,110.02 228.961,109.804 C228.367,107.05 226.963,104.565 226.261,101.811 C225.667,99.327 224.371,97.06 223.345,94.738 C223.129,94.198 222.75,93.713 222.372,93.011 C222.912,93.119 223.29,93.064 223.614,93.172 C224.694,93.496 225.775,93.874 226.909,94.144 C227.071,94.144 227.286,93.981 227.502,93.928 C227.34,93.766 227.233,93.497 227.071,93.443 C225.829,93.065 224.587,92.74 223.345,92.362 C223.129,92.254 222.859,92.092 222.643,91.929 C222.913,91.767 223.183,91.499 223.453,91.499 C224.479,91.553 225.451,91.715 226.423,91.768 C226.692,91.768 226.963,91.66 227.233,91.606 C227.017,91.39 226.855,91.119 226.639,91.065 C225.397,90.849 224.1,90.742 222.804,90.58 C222.642,89.338 222.751,89.176 224.101,89.284 C224.965,89.338 225.829,89.445 226.693,89.499 C226.91,89.499 227.125,89.338 227.341,89.284 C227.179,89.122 227.016,88.852 226.8,88.798 C226.476,88.69 226.099,88.637 225.721,88.637 L223.13,88.637 C222.806,87.394 223.345,87.015 224.209,87.123 C224.965,87.177 225.667,87.448 226.423,87.61 C226.746,87.664 227.071,87.61 227.395,87.61 C227.395,87.394 227.449,87.233 227.449,87.071 C226.045,86.747 224.64,86.476 223.182,86.152 C223.29,85.612 223.345,85.072 223.453,84.532 C224.803,83.884 226.261,85.18 227.611,84.478 L227.611,84.154 C226.261,83.992 224.964,83.775 223.56,83.559 C223.668,82.803 223.83,81.994 223.992,81.022 C225.018,81.238 225.991,81.399 226.909,81.561 C227.287,81.615 227.665,81.778 228.043,81.778 C228.204,81.778 228.313,81.562 228.475,81.4 C228.313,81.292 228.204,81.13 228.043,81.076 C226.693,80.752 225.342,80.536 223.992,80.266 C223.83,79.349 224.101,78.969 225.019,79.185 C226.045,79.455 227.071,79.671 228.205,79.941 C228.097,79.617 228.042,79.348 227.934,79.294 C226.638,78.916 225.397,78.538 223.777,78.052 C224.263,77.781 224.641,77.459 224.911,77.512 C225.613,77.566 226.315,77.835 227.017,77.997 C227.341,78.051 227.719,78.052 228.043,78.052 L228.043,77.619 C223.291,75.946 218.376,75.675 213.246,75.999 C218.376,72.813 222.751,68.98 226.639,64.336 L226.748,64.229 C226.532,64.121 226.369,64.066 226.261,64.013 C226.045,63.958 225.883,63.904 225.721,63.85 C220.969,62.986 217.512,60.341 215.244,56.183 C214.92,55.589 214.758,54.724 214.866,54.022 C215.244,51.754 216.001,49.54 216.163,47.272 C216.487,42.142 216.109,37.013 214.705,31.991 C213.193,26.483 211.303,21.244 207.577,16.708 C204.175,12.55 200.287,8.987 195.589,6.503 C190.891,3.965 185.978,1.805 180.632,0.941 C177.737,0.468 174.86,0.043 171.98,0.003 z M126.091,70.33 C128.305,71.572 130.464,72.706 132.57,73.84 C131.436,74.866 130.248,76 129.006,77.134 C128.52,77.62 128.089,77.566 127.765,77.026 C126.523,74.92 126.361,72.544 126.091,70.33 z M139.077,75.551 C139.381,75.561 139.699,75.608 140.023,75.675 C141.049,75.891 142.129,76.107 143.155,76.431 C143.641,76.593 144.18,76.917 144.612,77.241 C146.772,78.969 149.04,80.536 151.686,81.508 C153.144,82.048 154.441,82.912 155.899,83.398 C157.843,84.046 159.841,84.531 161.785,85.125 C161.245,88.149 161.353,88.312 164.917,90.526 C164.809,92.524 163.405,93.495 161.839,94.305 C159.031,95.763 156.223,97.167 153.415,98.625 C151.201,99.759 148.933,99.976 146.719,98.734 C143.641,97.06 140.617,95.332 137.593,93.604 C137.053,93.28 136.513,92.847 135.919,92.685 C135.506,92.582 135.036,92.824 134.432,92.987 C134.444,92.996 134.448,93.001 134.461,93.01 L134.353,93.01 C134.382,93.003 134.403,92.995 134.432,92.987 C133.388,92.204 133.336,92.13 134.083,90.796 C135.001,89.122 134.784,87.286 134.19,85.774 C133.38,83.668 133.921,81.994 134.839,80.266 C135.433,79.132 136.243,78.052 136.837,76.918 C137.364,75.824 138.163,75.521 139.077,75.551 z" fill="#000000" id="path3971"/>
    <path d="M68.635,107.968 C70.255,108.076 71.875,108.238 73.495,108.238 C74.791,108.238 76.033,108.13 77.329,108.076 C77.653,108.076 78.031,108.292 78.301,108.184 C80.245,107.482 81.271,106.024 81.271,103.918 C81.271,102.568 81.217,101.218 81.055,99.868 C80.839,97.762 80.461,95.656 80.191,93.604 C80.083,92.794 79.651,91.984 80.569,91.282 C81.379,90.634 82.243,90.634 83.161,90.958 C83.431,91.066 83.647,91.174 83.863,91.336 C86.941,93.658 88.183,96.736 87.697,100.516 C87.643,100.948 87.589,101.434 87.535,102.082 C88.723,101.65 89.641,101.272 90.667,100.948 C92.557,100.354 94.447,99.922 96.283,99.22 C98.389,98.41 100.387,97.33 102.385,96.304 C103.681,95.656 104.923,96.088 105.139,97.546 C105.247,98.248 105.085,99.274 104.653,99.76 C103.735,100.786 102.655,101.758 101.467,102.406 C99.739,103.324 97.849,103.918 96.067,104.674 C97.633,106.402 99.361,108.022 99.469,110.614 C99.577,113.098 98.659,116.23 95.581,117.31 C94.447,117.688 93.313,118.12 92.233,118.66 C88.939,120.226 84.943,119.416 82.621,116.608 C81.541,115.312 80.623,113.8 78.571,114.502 C78.517,114.502 78.463,114.502 78.463,114.502 C78.193,114.718 77.761,114.934 77.707,115.204 C77.491,116.446 77.383,117.688 77.275,118.93 C77.059,121.252 76.789,123.574 76.573,125.896 C76.465,126.814 75.925,127.246 75.007,127.138 C74.413,127.083 73.765,127.083 73.171,127.03 C73.009,127.03 72.847,127.03 72.685,127.03 C72.307,127.083 71.929,127.299 71.605,127.246 C67.717,126.436 63.991,125.086 60.535,123.088 C59.401,122.44 58.213,121.738 57.079,121.09 C57.943,122.494 58.861,123.844 59.887,124.978 C61.021,126.274 62.101,127.786 64.153,127.786 C64.315,127.786 64.477,127.839 64.801,127.947 C61.723,131.241 57.997,132.645 54.325,134.211 C54.379,134.482 54.433,134.697 54.487,134.859 C56.107,139.395 56.809,144.147 57.619,148.845 C58.267,152.625 58.699,156.459 60.049,160.077 C60.157,160.401 59.887,160.833 59.779,161.211 C59.617,161.751 59.239,162.345 59.401,162.777 C60.643,165.963 60.427,169.311 60.697,172.659 C60.913,175.089 61.021,177.465 61.237,179.895 C61.345,180.921 62.155,181.569 63.019,181.947 C67.231,183.729 71.443,185.511 75.709,187.131 C76.951,187.617 77.329,188.967 77.059,190.155 C76.789,191.397 75.655,191.235 74.791,191.397 C73.495,191.667 72.199,191.829 70.903,192.045 C69.229,192.369 67.555,192.801 65.881,193.017 C63.235,193.341 60.589,193.557 57.943,193.719 C56.647,193.827 55.189,194.097 54.163,193.611 C52.759,192.963 51.517,193.287 50.221,193.558 C48.709,193.882 48.061,193.611 47.845,192.046 C47.575,189.94 47.305,187.888 47.197,185.782 C47.143,184.972 47.143,184.054 47.575,183.406 C48.439,182.056 48.925,180.76 48.763,179.14 C48.439,176.17 48.223,173.2 48.061,170.23 C48.007,169.474 48.169,168.664 48.277,167.854 C48.331,167.314 48.493,166.774 48.439,166.288 C48.007,163.858 47.575,161.482 47.035,159.106 C46.819,158.188 46.441,157.216 46.009,156.352 C45.253,154.894 44.389,153.436 43.633,151.978 C42.337,149.602 40.879,147.388 37.8,147.01 C36.828,146.902 36.396,147.118 36.126,147.928 C34.992,151.276 33.696,154.57 32.778,157.972 C31.806,161.698 30.78,165.424 30.618,169.312 C30.456,172.39 30.294,175.468 30.186,178.546 C30.132,180.004 30.186,181.516 30.294,182.974 C30.348,183.73 30.348,184.702 30.78,185.242 C32.076,186.862 32.508,188.806 33.102,190.75 C33.534,192.208 32.94,193.072 31.428,193.288 C30.726,193.396 29.97,193.612 29.322,193.936 C26.73,195.124 24.03,195.988 21.114,195.772 C19.224,195.664 18.468,195.016 18.198,193.126 C17.766,190.048 18.198,186.97 18.306,183.892 C18.468,180.544 19.926,177.574 20.628,174.388 C21.168,171.958 21.546,169.474 21.978,166.99 C22.356,164.452 22.626,161.86 23.058,159.376 C23.706,155.974 24.462,152.626 25.272,149.278 C25.758,147.334 26.406,145.444 26.946,143.554 C27,143.284 27,142.96 26.946,142.69 C26.082,139.504 26.136,136.318 27.054,133.132 C27.162,132.808 27.108,132.322 26.946,132.106 C26.028,131.296 25.056,130.378 23.976,129.784 C22.95,129.19 22.302,128.326 21.762,127.354 C21.276,126.436 21.492,126.058 22.41,125.572 C22.95,125.302 23.544,125.032 23.922,124.6 C25.326,122.926 26.676,121.252 27.918,119.47 C28.782,118.174 28.728,116.716 28.242,115.15 C26.352,117.04 24.624,118.876 23.598,121.252 C23.22,122.116 22.788,122.17 22.14,121.63 C20.844,120.496 19.602,119.416 18.252,118.282 C17.766,118.984 17.28,119.686 16.74,120.442 C18.036,121.954 19.224,123.358 20.412,124.762 C20.628,124.978 20.79,125.248 20.898,125.518 C21.438,126.868 21.924,128.218 22.464,129.568 C22.842,130.594 22.68,131.134 21.654,131.62 C20.682,132.106 19.224,131.728 18.252,130.702 C17.55,129.946 16.848,129.19 16.146,128.38 C15.714,129.136 15.336,129.892 14.796,130.594 C13.824,131.944 12.042,132.052 11.394,130.755 C11.232,130.377 11.34,129.837 11.34,129.351 C11.232,129.514 11.07,129.621 10.962,129.729 C9.99,131.133 9.018,130.755 7.884,129.891 C7.128,129.297 7.29,128.487 8.316,127.407 C8.586,127.137 8.802,126.759 9.072,126.435 C8.424,126.705 7.938,127.029 7.506,127.461 C6.75,128.109 5.994,127.731 5.346,127.353 C4.698,126.975 4.806,126.273 5.184,125.733 C5.562,125.139 5.994,124.545 6.426,124.005 C6.75,123.627 7.074,123.249 7.56,122.763 C7.074,122.709 6.804,122.601 6.588,122.709 C5.67,122.925 4.752,123.195 3.834,123.465 C3.186,123.681 2.592,124.059 1.944,124.167 C0.972,124.383 -0,123.951 -0,123.141 C-0,122.277 0.432,121.413 0.702,120.495 C0.702,120.442 0.81,120.442 0.864,120.442 C2.43,119.74 3.996,118.984 5.562,118.282 C6.264,117.958 7.074,117.688 7.83,117.634 C8.586,117.579 9.342,117.795 10.152,117.85 C10.638,117.85 11.34,117.903 11.61,117.634 C12.582,116.662 13.446,115.582 14.256,114.448 C14.418,114.232 14.256,113.746 14.094,113.422 C13.878,113.044 13.5,112.666 13.176,112.288 C13.878,112.018 14.364,111.856 14.796,111.64 C15.39,111.262 15.876,110.776 16.416,110.398 C18.036,109.264 19.656,108.184 21.276,107.104 C21.492,106.941 21.654,106.672 21.87,106.456 C20.952,105.592 20.088,104.836 19.278,104.026 C17.334,102.082 15.714,99.922 14.742,97.276 C13.5,93.928 11.988,90.688 10.638,87.34 C9.774,85.234 9.018,83.074 8.262,80.914 C7.83,79.726 7.668,78.376 7.074,77.296 C5.13,73.786 4.86,69.898 4.536,66.064 C4.374,64.12 4.482,62.122 4.536,60.178 C4.59,58.126 4.59,56.128 4.806,54.076 C5.076,51.592 5.562,49.108 5.994,46.678 C6.696,43.006 7.506,39.334 9.342,35.986 C10.962,33.016 12.906,30.37 15.336,28.21 C17.388,26.374 19.44,24.592 21.222,22.432 C21.6,22 22.194,21.73 22.68,21.406 C22.896,21.243 23.166,21.19 23.382,20.974 C25.434,18.814 27.486,16.708 29.43,14.494 C31.32,12.334 33.318,10.336 35.694,8.716 C39.042,6.448 42.823,5.584 46.711,4.882 C49.195,4.45 51.571,5.044 53.947,5.53 C57.241,6.178 60.427,7.312 63.289,9.094 C65.233,10.336 66.907,11.848 67.663,14.008 C68.095,15.25 68.797,15.628 69.877,15.736 C70.471,15.79 71.011,15.844 71.605,15.952 C72.037,16.006 72.469,16.168 72.847,16.33 C76.195,18.112 79.435,19.948 82.783,21.676 C86.293,23.512 89.479,25.726 92.017,28.858 C96.769,34.636 95.689,43.114 90.505,47.974 C89.209,49.216 87.427,49.972 85.861,50.998 C86.725,52.834 87.535,54.832 89.317,56.236 C90.991,57.586 92.665,58.99 95.149,59.476 C94.663,60.448 94.285,61.312 93.799,62.068 C92.179,64.498 90.289,66.766 89.803,69.844 C89.479,72.112 88.885,74.38 88.075,76.54 C87.157,78.916 86.077,81.346 84.619,83.452 C81.379,88.096 76.789,91.174 71.389,92.902 C67.933,94.036 64.477,94.9 61.021,94.576 C61.399,94.954 61.885,95.386 62.371,95.818 C63.613,96.898 63.613,96.898 63.019,98.41 C62.209,100.462 61.561,102.676 60.049,104.404 C59.779,104.728 59.563,105.16 59.239,105.646 C62.371,106.726 65.341,107.806 68.581,108.022 z" fill="#000000" id="path3911"/>
  </g>
  <g id="Layer_1">
    <g id="_285139648">
      <path d="M15.12,96.52 C13.824,93.388 12.528,90.256 11.286,87.124 C10.422,84.91 9.612,82.696 8.856,80.482 C8.424,79.186 7.992,77.944 7.56,76.648 C7.074,75.244 6.372,73.84 5.994,72.382 C4.806,67.846 4.86,63.148 5.076,58.504 C5.238,54.67 5.94,50.782 6.588,46.948 C7.236,43.114 8.154,39.334 10.098,35.878 C11.718,32.962 13.77,30.478 16.146,28.21 C17.982,26.428 19.818,24.592 21.654,22.81 C21.978,22.486 22.302,22.162 22.626,21.892 C23.274,21.352 24.03,20.92 24.678,20.326 C25.326,19.732 25.92,19.03 26.514,18.382 C28.188,16.6 29.754,14.71 31.482,12.982 C33.534,10.93 35.532,8.878 38.286,7.744 C40.069,6.988 41.905,6.286 43.795,5.8 C45.577,5.368 47.467,4.882 49.249,5.044 C53.785,5.476 58.267,6.34 62.317,8.77 C64.693,10.174 66.907,11.794 67.771,14.656 C68.149,15.898 68.635,17.248 68.581,18.49 C68.473,21.568 68.257,24.646 67.771,27.67 C67.069,32.044 66.529,36.364 65.125,40.63 C63.073,46.732 60.589,52.51 57.133,57.91 C54.217,62.5 50.329,66.226 46.333,69.79 C45.685,70.384 44.929,71.032 44.119,71.302 C39.637,72.814 35.1,74.218 30.618,75.676 C28.35,76.432 26.514,77.89 24.84,79.564 C22.896,81.508 21.276,83.668 20.088,86.098 C19.386,87.556 18.738,89.068 18.198,90.58 C17.388,92.848 16.686,95.116 15.876,97.6 C15.606,97.114 15.336,96.79 15.174,96.358 z M64.369,18.112 L64.369,18.112 C63.343,24.16 61.561,29.992 58.699,35.446 C56.593,39.442 54.325,43.33 51.571,46.948 C47.575,52.132 42.931,56.668 37.584,60.394 C32.238,64.12 27.216,68.278 22.032,72.22 C17.982,75.298 14.742,79.132 12.636,83.83 C12.42,84.316 12.15,84.748 11.88,85.234 C11.988,85.288 12.096,85.396 12.204,85.45 C12.474,85.126 12.744,84.856 12.96,84.532 C14.202,82.426 15.336,80.212 16.74,78.268 C18.684,75.622 21.222,73.57 23.814,71.572 C26.946,69.142 29.97,66.658 33.048,64.228 C34.938,62.77 36.99,61.474 38.934,60.07 C44.065,56.344 48.493,51.916 52.273,46.84 C55.621,42.412 58.375,37.66 60.481,32.584 C61.507,30.154 62.533,27.67 63.235,25.132 C63.937,22.702 64.315,20.164 64.801,17.734 C64.855,17.518 64.909,17.302 65.017,17.14 C64.963,17.086 64.855,17.086 64.801,17.032 C64.585,17.41 64.261,17.788 64.207,18.166 z M55.999,25.078 L55.999,25.078 C54.217,27.4 52.327,29.614 50.437,31.828 C46.657,36.31 42.229,40.198 37.368,43.438 C35.316,44.842 32.94,45.76 30.726,46.948 C27.054,48.838 23.328,50.62 19.764,52.618 C16.74,54.346 14.418,56.83 12.528,59.8 C11.664,61.15 10.692,62.446 9.774,63.796 C9.612,64.012 9.72,64.39 9.72,64.714 C10.044,64.552 10.476,64.498 10.638,64.228 C11.61,62.662 12.42,60.988 13.446,59.476 C15.66,56.236 18.522,53.752 22.032,51.97 C26.838,49.54 31.698,47.218 36.396,44.68 C38.61,43.438 40.663,41.818 42.661,40.198 C47.413,36.364 51.517,31.828 55.297,27.022 C57.403,24.376 59.239,21.46 59.833,18.004 C59.887,17.68 59.887,17.356 59.941,17.032 C58.969,19.894 57.835,22.648 55.999,25.024 z M48.709,17.842 L48.709,17.842 C45.631,20.758 42.499,23.782 38.719,25.834 C34.182,28.264 29.538,30.586 24.948,32.962 C21.33,34.798 17.496,36.31 14.742,39.442 C12.906,41.494 11.124,43.6 9.288,45.706 C9.396,45.814 9.504,45.922 9.612,46.03 C9.936,45.76 10.314,45.598 10.53,45.274 C14.04,40.306 18.414,36.472 24.03,34.042 C27.54,32.53 30.996,30.694 34.398,28.912 C39.205,26.374 43.795,23.566 47.629,19.624 C48.601,18.652 49.519,17.626 50.329,16.546 C50.869,15.844 50.491,15.304 49.519,15.25 C50.005,16.438 49.411,17.248 48.655,17.95 z" fill="#8F6548" id="path3163"/>
      <path d="M93.691,61.258 C92.935,62.392 92.017,63.526 91.315,64.66 C90.775,65.524 90.127,66.442 89.857,67.414 C89.317,69.412 89.101,71.464 88.507,73.462 C87.859,75.568 86.941,77.62 86.077,79.672 C84.241,84.208 80.731,87.178 76.735,89.716 C75.169,90.688 73.387,91.282 71.659,91.93 C69.013,93.01 66.259,93.82 63.343,93.82 C60.805,93.82 58.267,93.712 55.783,93.388 C52.921,93.064 50.059,92.686 47.521,91.174 C45.469,89.932 43.363,88.69 41.419,87.394 C40.015,86.422 39.042,85.18 39.204,83.236 C39.258,82.318 39.096,81.346 38.826,80.428 C38.556,79.51 38.934,78.916 39.42,78.214 C42.445,74.164 46.225,70.816 49.843,67.36 C53.137,64.228 56.215,60.88 58.375,56.884 C60.103,53.752 61.831,50.566 63.289,47.272 C64.423,44.788 65.179,42.142 65.989,39.496 C66.529,37.822 66.961,36.148 67.285,34.42 C67.609,32.8 67.771,31.126 68.041,29.452 C68.257,29.506 68.365,29.452 68.419,29.506 C68.581,29.614 68.797,29.722 68.959,29.83 C72.685,32.368 75.979,35.392 78.787,38.956 C80.623,41.278 82.189,43.762 83.431,46.462 C84.241,48.298 85.159,50.08 85.861,51.916 C86.833,54.346 88.399,56.236 90.505,57.64 C91.693,58.45 92.989,59.152 94.285,59.962 C94.123,60.286 94.015,60.772 93.745,61.204 z M67.717,86.8 L67.717,86.8 C69.121,88.42 70.849,89.23 72.955,88.528 C73.495,88.366 73.981,87.61 74.143,87.07 C75.061,84.532 75.763,81.994 76.681,79.456 C77.383,77.404 78.193,75.406 79.057,73.408 C79.543,72.22 79.327,71.572 78.085,71.194 C77.167,70.924 76.249,70.816 75.331,70.6 C73.063,70.006 70.903,69.25 68.635,68.764 C65.935,68.17 64.855,69.088 64.099,71.842 C63.775,72.922 63.829,74.11 63.775,75.298 C63.721,75.892 63.883,76.54 63.937,77.134 C64.423,80.698 65.395,84.1 67.825,86.908 z M75.709,54.724 L75.709,54.724 C75.493,54.562 75.061,54.4 74.845,54.508 C74.629,54.616 74.359,55.048 74.413,55.264 C74.845,56.938 75.277,58.612 75.871,60.286 C76.141,60.988 76.789,60.934 77.005,60.178 C77.221,59.368 77.275,58.558 77.383,57.694 C77.275,56.398 76.627,55.48 75.763,54.67 z M67.987,45.706 L67.987,45.706 C68.365,44.896 68.635,44.086 68.959,43.276 C69.553,41.98 70.147,41.71 71.335,42.466 C73.009,43.492 74.629,44.626 75.655,46.408 C75.709,46.516 75.871,46.624 75.979,46.786 C76.087,46.732 76.141,46.732 76.249,46.678 C76.141,46.354 76.141,45.976 75.925,45.706 C74.521,43.816 72.739,42.52 70.687,41.494 C69.877,41.116 69.229,41.494 68.851,42.304 C68.257,43.492 67.717,44.734 67.177,45.976 C67.231,46.084 67.285,46.192 67.393,46.3 C67.609,46.138 67.933,45.976 68.041,45.76 z" fill="#FDDDCF" id="path3165"/>
      <path d="M27.864,132.592 C26.568,135.94 26.676,139.18 27.486,142.42 C27.702,143.176 27.81,143.824 27.216,144.58 C26.73,145.282 26.568,146.254 26.406,147.172 C25.272,152.302 24.084,157.378 23.112,162.562 C22.572,165.424 22.518,168.448 22.032,171.31 C21.708,173.416 21.168,175.468 20.412,177.466 C19.386,180.22 19.008,183.082 18.792,185.998 C18.684,187.726 18.576,189.454 18.576,191.182 C18.576,192.1 18.792,193.072 19.008,193.99 C19.224,194.8 19.98,194.908 20.628,194.962 C24.03,195.232 27.162,194.368 30.078,192.532 C30.726,192.154 31.536,192.046 32.4,191.776 C31.914,189.724 31.914,187.564 30.294,185.944 C29.376,185.026 29.538,183.784 29.538,182.596 C29.538,181.516 29.484,180.436 29.484,179.41 C29.43,178.114 29.322,176.764 29.43,175.468 C29.7,172.12 29.808,168.772 30.402,165.478 C31.374,160.402 32.454,155.326 34.506,150.52 C35.046,149.332 35.37,148.036 35.802,146.794 C31.644,144.958 30.24,143.986 30.24,142.852 C30.888,143.338 31.536,143.77 32.13,144.256 C33.534,145.39 35.208,145.93 36.936,146.308 C38.394,146.632 39.906,147.064 41.365,147.442 C41.797,147.55 42.229,147.658 42.013,148.306 C41.959,148.414 42.121,148.576 42.229,148.738 C43.849,151.438 45.523,154.084 47.143,156.838 C47.359,157.216 47.467,157.648 47.521,158.08 C48.061,160.996 48.601,163.912 49.141,166.774 C49.195,167.044 49.249,167.368 49.141,167.53 C48.493,168.448 48.709,169.474 48.817,170.5 C49.087,173.362 49.357,176.278 49.519,179.14 C49.573,180.49 49.573,181.84 48.493,182.92 C47.359,184.108 47.845,185.566 47.953,186.916 C48.061,188.698 48.439,190.426 48.655,192.154 C48.763,192.802 49.087,193.018 49.735,192.856 C50.275,192.694 50.869,192.532 51.409,192.478 C52.003,192.424 52.759,192.208 53.245,192.478 C54.757,193.342 56.377,193.018 57.943,192.964 C59.941,192.91 61.939,192.64 63.937,192.37 C67.123,191.884 70.309,191.344 73.441,190.804 C73.927,190.696 74.467,190.75 74.953,190.588 C75.493,190.426 76.249,190.156 76.357,189.778 C76.627,189.022 76.411,188.158 75.547,187.726 C74.197,187.078 72.847,186.322 71.389,185.782 C68.257,184.594 65.071,183.568 61.939,182.326 C61.345,182.11 60.697,181.192 60.643,180.544 C60.319,177.682 60.211,174.874 60.049,172.012 C59.833,168.88 59.779,165.748 58.645,162.778 C58.537,162.4 58.645,161.86 58.861,161.536 C59.401,160.78 59.401,160.078 59.185,159.16 C58.537,156.73 57.997,154.3 57.565,151.816 C56.647,146.416 55.945,140.962 54.163,135.67 C53.893,134.86 53.677,134.374 52.597,134.752 C50.761,135.4 48.817,135.778 46.873,136.156 C44.011,136.75 41.149,136.372 38.286,135.994 C34.614,135.562 31.212,134.374 27.864,132.646 z" fill="#737476" id="path3167"/>
      <path d="M63.343,128.488 C61.507,127.462 60.157,126.166 58.969,124.654 C57.889,123.304 56.971,121.846 55.837,120.658 C54.919,119.74 53.731,119.092 52.651,118.336 C48.655,115.582 44.929,112.558 41.689,108.94 C41.581,108.832 41.473,108.778 41.095,108.508 C41.419,110.128 41.581,111.532 41.959,112.882 C42.229,113.854 41.851,114.124 41.095,114.07 C40.015,113.962 38.826,113.908 37.8,113.53 C34.506,112.396 31.212,111.1 28.026,109.912 C28.134,110.884 28.242,112.126 28.404,113.314 C28.566,114.448 28.836,115.582 29.106,116.716 C29.376,117.904 29.106,118.984 28.458,119.902 C27.216,121.576 25.866,123.25 24.57,124.816 C24.192,125.248 23.706,125.518 23.22,125.842 C22.302,126.436 22.14,127.3 22.95,128.056 C25.974,131.026 29.484,133.186 33.588,134.32 C37.854,135.508 42.229,136.264 46.711,135.562 C50.707,134.914 54.541,133.78 58.159,131.836 C59.455,131.134 60.751,130.432 62.047,129.622 C62.533,129.352 62.911,128.92 63.397,128.488 z" fill="#ABA7D2" id="path3169"/>
      <path d="M39.853,95.656 C40.231,99.382 40.609,103.108 41.041,106.834 C41.095,107.266 41.473,107.752 41.797,108.13 C44.821,111.424 48.061,114.394 51.733,116.986 C55.513,119.632 59.455,122.008 63.613,123.952 C66.205,125.194 68.959,126.382 72.199,126.49 C72.901,120.604 73.549,114.826 74.251,108.994 C73.117,108.94 71.875,108.886 70.633,108.832 C65.071,108.454 59.779,106.996 54.919,104.188 C50.383,101.596 45.955,98.788 41.527,96.142 C41.149,95.926 40.717,95.71 40.285,95.494 C40.123,95.548 40.015,95.602 39.853,95.71 z" fill="#ABA7D2" id="path3171"/>
      <path d="M69.283,23.998 C68.041,24.7 68.581,25.726 68.365,26.536 C67.987,28.048 68.635,28.912 69.877,29.83 C73.171,32.152 76.195,34.852 78.733,38.092 C81.217,41.17 83.323,44.464 84.673,48.19 C84.835,48.622 85.051,49 85.267,49.378 C85.537,49.972 85.915,50.026 86.509,49.81 C91.639,47.596 94.069,43.438 94.555,38.146 C94.879,34.852 93.745,31.774 91.639,29.074 C89.371,26.158 86.401,24.16 83.215,22.432 C79.759,20.542 76.249,18.652 72.685,16.87 C71.875,16.492 70.849,16.492 69.931,16.33 C69.661,16.276 69.391,16.276 68.959,16.384 C70.093,17.518 71.119,18.76 72.307,19.84 C74.305,21.622 76.465,23.242 78.517,24.916 C82.567,28.156 85.375,32.314 87.211,37.12 C87.373,37.498 87.373,37.876 87.427,38.308 C87.373,38.362 87.265,38.416 87.211,38.416 C87.049,38.2 86.833,37.984 86.725,37.714 C85.429,33.988 83.701,30.478 80.677,27.778 C78.085,25.456 75.439,23.35 72.793,21.082 C71.497,20.002 70.309,18.814 69.067,17.626 C69.013,19.354 68.905,21.136 68.905,22.918 C68.905,23.134 69.121,23.35 69.337,23.512 C70.687,24.538 72.091,25.456 73.495,26.482 C73.765,26.698 73.927,26.968 74.143,27.238 C74.089,27.292 73.981,27.4 73.927,27.454 C72.361,26.32 70.741,25.186 69.229,24.052 z" fill="#8F6548" id="path3173"/>
      <path d="M28.188,108.832 C28.512,109.048 28.782,109.372 29.106,109.48 C32.13,110.668 35.1,111.802 38.124,112.882 C39.097,113.206 40.177,113.206 41.365,113.368 C41.311,112.666 41.257,112.126 41.149,111.64 C40.015,105.97 39.853,100.246 39.474,94.522 C39.367,92.902 39.097,91.282 38.989,89.662 C38.826,87.502 38.826,85.396 38.664,83.236 C38.61,82.21 38.34,81.184 38.124,79.942 C35.856,83.074 34.29,86.314 33.858,90.148 C33.534,89.176 33.642,87.394 34.344,85.774 C35.262,83.776 36.288,81.832 37.368,79.888 C38.502,77.836 40.177,76.216 41.743,74.488 C42.445,73.732 43.147,72.922 43.741,71.95 C40.825,72.922 37.962,73.948 35.046,74.92 C33.642,75.406 32.238,75.892 30.78,76.27 C29.808,76.54 29.322,77.08 29.16,78.052 C28.62,81.292 28.026,84.532 27.54,87.772 C26.946,91.984 26.622,96.25 27.324,100.516 C27.756,103 28.08,105.538 28.458,108.076 C28.512,108.292 28.296,108.508 28.188,108.778 L28.188,108.778 z" fill="#8F6548" id="path3175"/>
      <path d="M94.069,104.242 C95.527,103.864 96.769,103.594 98.011,103.216 C100.171,102.568 102.223,101.65 103.735,99.922 C104.005,99.598 104.383,99.274 104.437,98.95 C104.437,98.302 104.437,97.546 104.113,96.952 C103.735,96.304 102.979,96.52 102.493,96.898 C99.415,99.112 95.743,99.922 92.179,101.002 C90.343,101.596 88.615,102.352 86.671,103.054 C86.725,102.46 86.833,101.866 86.941,101.218 C87.535,97.924 86.941,94.9 84.403,92.524 C83.809,91.93 82.891,91.498 82.027,91.336 C81.001,91.12 80.569,91.768 80.677,92.848 C81.055,95.872 81.487,98.842 81.811,101.866 C81.919,102.784 81.865,103.702 81.811,104.62 C81.703,106.78 80.191,107.86 78.517,108.778 C78.031,109.048 77.923,109.264 77.923,109.75 C77.923,111.046 77.923,112.396 77.869,113.746 C78.085,113.746 78.355,113.8 78.571,113.746 C80.785,113.206 81.973,114.718 83.107,116.176 C84.727,118.39 87.103,119.038 89.479,118.66 C91.855,118.282 94.177,117.31 96.283,116.23 C98.983,114.826 99.469,110.128 98.065,108.184 C96.985,106.726 96.013,105.16 94.069,104.296 z" fill="#FDDDCF" id="path3177"/>
      <path d="M28.188,108.832 C27.918,107.806 27.648,106.834 27.432,105.808 C25.974,98.572 26.19,91.336 27.594,84.1 C28.026,81.886 28.458,79.672 28.89,77.242 C26.298,78.862 24.3,80.806 22.68,83.128 C21.114,85.342 19.71,87.61 19.008,90.31 C18.468,92.254 18.954,94.144 19.17,96.088 C19.332,97.384 19.764,98.68 20.088,99.922 C20.142,100.084 19.98,100.3 19.926,100.516 C19.764,100.408 19.548,100.3 19.548,100.192 C19.386,99.652 19.278,99.112 19.17,98.626 C18.846,96.736 18.576,94.9 18.306,93.01 C18.252,92.848 18.198,92.632 18.036,92.47 C17.604,94.846 16.2,97.06 16.686,99.544 C16.848,100.408 17.604,101.164 18.198,101.866 C20.736,104.944 23.976,107.212 27.594,108.832 C27.756,108.886 27.972,108.832 28.134,108.832 C28.134,108.832 28.134,108.832 28.134,108.832 z" fill="#8F6548" id="path3179"/>
      <path d="M54.919,93.982 C56.161,94.9 57.727,95.332 58.753,96.898 C58.321,96.844 58.159,96.898 58.051,96.79 C56.971,96.088 55.945,95.332 54.865,94.63 C54.325,94.306 53.623,94.036 52.975,93.874 C48.709,92.794 45.037,90.58 41.473,88.15 C40.717,87.664 40.123,86.908 39.421,86.26 C39.313,87.124 39.313,87.934 40.015,88.636 C42.661,91.444 45.739,93.766 49.033,95.818 C49.897,96.358 50.005,96.466 49.951,97.384 C46.441,94.684 43.039,92.146 39.636,89.554 C39.799,91.066 39.961,92.74 40.177,94.414 C40.177,94.576 40.447,94.738 40.663,94.846 C44.389,97.168 48.115,99.544 51.895,101.812 C53.677,102.892 55.513,103.81 57.349,104.728 C58.213,105.16 58.861,104.944 59.509,104.134 C61.075,102.136 61.885,99.814 62.695,97.438 C62.803,97.168 62.587,96.574 62.317,96.358 C60.589,94.63 58.375,94.036 55.945,94.036 C55.567,94.036 55.243,93.982 54.865,93.982 z" fill="#F6AFCE" id="path3181"/>
      <path d="M15.282,114.448 C14.31,115.744 13.392,116.986 12.42,118.174 C12.258,118.39 11.772,118.444 11.448,118.444 C10.422,118.39 9.396,118.39 8.424,118.228 C7.398,118.066 6.588,118.552 5.778,118.984 C4.428,119.686 2.97,120.334 1.62,121.036 C1.404,121.144 1.134,121.36 1.026,121.576 C0.864,122.008 0.81,122.494 0.702,122.98 C1.296,123.034 1.944,123.196 2.538,123.088 C3.996,122.764 5.4,122.278 6.804,121.954 C7.182,121.846 7.614,121.9 8.046,121.9 C9.072,124.708 11.232,125.896 14.094,126.112 C14.526,126.166 14.958,126.058 15.282,126.22 C15.714,126.382 16.308,126.652 16.416,126.976 C16.848,128.434 17.982,129.352 18.954,130.324 C19.548,130.918 20.304,131.188 21.222,130.972 C21.87,130.81 22.086,130.432 21.816,129.784 C21.276,128.38 20.736,126.922 20.196,125.572 C20.088,125.248 19.764,124.978 19.548,124.708 C18.522,123.52 17.442,122.44 16.47,121.198 C16.254,120.874 16.362,120.172 16.524,119.74 C16.848,118.984 17.658,118.282 17.658,117.58 C17.604,116.932 16.74,116.338 16.2,115.69 C15.876,115.312 15.606,114.934 15.336,114.556 z" fill="#FDDDCF" id="path3183"/>
      <path d="M23.436,119.362 C24.84,117.796 26.352,116.176 27.756,114.556 C27.918,114.34 28.026,113.962 27.972,113.692 C27.702,112.288 27.432,110.884 27.108,109.48 C27.054,109.264 26.784,109.048 26.568,108.94 C25.272,108.184 23.976,107.482 22.572,106.78 C21.222,107.752 19.926,108.778 18.522,109.75 C17.82,110.236 17.064,110.56 16.362,111.1 C16.146,111.262 15.876,111.91 16.038,112.126 C17.982,114.826 20.142,117.364 22.95,119.254 C23.058,119.308 23.112,119.308 23.328,119.416 z" fill="#ABA7D2" id="path3185"/>
      <path d="M74.953,108.724 C74.629,111.64 74.251,114.556 73.927,117.472 C73.603,120.172 73.279,122.818 72.955,125.518 C72.847,126.112 73.063,126.328 73.657,126.382 C75.817,126.598 75.763,126.382 76.087,124.492 C76.519,121.792 76.681,119.038 76.897,116.338 C77.059,114.232 77.221,112.18 77.329,110.074 C77.383,108.454 77.383,108.454 75.763,108.616 C75.547,108.616 75.385,108.67 74.953,108.724 z" fill="#F9CDE0" id="path3187"/>
      <path d="M22.68,121.09 C22.896,120.82 23.112,120.604 23.274,120.388 C21.654,118.876 20.088,117.472 18.576,115.96 C17.55,114.88 16.686,113.638 15.66,112.558 C15.444,112.342 15.012,112.342 14.634,112.342 C17.01,115.528 19.278,118.66 22.68,121.036 z" fill="#F9CDE0" id="path3189"/>
      <path d="M13.068,126.598 C12.744,127.786 12.312,128.92 12.096,130.162 C11.934,130.918 12.474,131.08 13.122,130.918 C14.04,130.648 15.714,128.596 15.606,127.678 C15.552,127.354 15.12,127.03 14.742,126.868 C14.31,126.706 13.824,126.706 13.338,126.652 C13.23,126.652 13.122,126.598 13.014,126.598 z" fill="#FDDDCF" id="path3191"/>
      <path d="M12.636,126.706 C11.664,126.328 10.908,126.004 10.314,125.788 C9.828,126.49 9.288,127.138 8.802,127.84 C8.478,128.326 7.992,128.866 8.532,129.46 C9.18,130.108 9.882,130.108 10.53,129.352 C11.232,128.542 11.88,127.624 12.582,126.706 z" fill="#FDDDCF" id="path3193"/>
      <path d="M9.396,125.14 C8.856,124.492 8.478,123.952 7.884,123.196 C7.236,124.114 6.588,124.924 6.048,125.842 C5.886,126.058 6.048,126.652 6.264,126.868 C6.426,127.03 6.966,126.976 7.236,126.814 C7.992,126.328 8.694,125.734 9.396,125.14 z" fill="#FDDDCF" id="path3195"/>
      <path d="M78.949,72.328 C78.463,72.112 78.031,71.896 77.599,71.734 C74.953,70.978 72.361,70.276 69.715,69.574 C69.121,69.412 68.473,69.25 67.825,69.196 C66.151,69.088 65.233,69.736 64.639,71.95 C64.099,74.164 64.045,76.432 64.693,78.646 C65.341,80.914 66.313,83.074 67.231,85.234 C67.825,86.584 68.959,87.556 70.363,87.988 C71.119,88.204 72.037,87.988 72.847,87.934 C72.955,87.934 73.117,87.718 73.171,87.556 C74.143,84.802 75.061,82.102 76.033,79.348 C76.735,77.35 77.491,75.406 78.247,73.462 C78.409,73.084 78.679,72.814 79.003,72.328 z" fill="#F59087" id="path3209"/>
    </g>
    <g id="_285141256">
      <path d="M194.131,35.338 C192.565,37.12 192.133,38.632 192.997,39.874 C193.051,39.388 193.051,39.118 193.105,38.848 C193.213,37.066 194.617,35.5 196.021,35.446 C196.885,35.446 197.479,35.716 197.803,36.526 C198.019,37.012 198.235,37.498 198.451,37.984 C199.045,37.552 199.045,37.552 198.127,35.608 C200.341,35.878 202.447,36.256 204.607,36.418 C208.981,36.796 211.249,39.766 212.653,43.276 C214.111,46.894 214.435,50.836 213.733,54.724 C213.139,57.91 212.491,61.15 211.465,64.228 C210.061,68.386 207.307,71.788 204.175,74.758 C200.881,77.89 197.209,80.644 193.105,82.588 C190.081,84.046 186.841,85.072 183.439,85.288 C181.657,85.396 179.929,85.666 178.147,85.72 C174.853,85.882 171.613,85.774 168.373,85.342 C164.647,84.91 160.975,84.262 157.411,83.074 C153.145,81.616 149.041,79.834 145.531,76.918 C145.477,76.864 145.423,76.81 145.369,76.756 C148.015,76.918 150.607,77.242 153.199,77.296 C155.791,77.296 158.437,77.512 160.759,76.162 C158.923,74.596 156.979,73.3 155.521,71.626 C152.173,67.792 150.067,63.364 149.851,58.072 C149.689,54.13 149.797,50.188 150.823,46.408 C151.363,44.41 152.227,42.466 153.253,40.684 C155.089,37.606 156.979,34.528 159.301,31.774 C161.191,29.506 163.729,27.778 165.997,25.888 C166.537,25.402 167.023,25.456 167.725,25.942 C171.559,28.912 175.825,30.964 180.415,32.368 C184.357,33.61 188.353,34.258 192.403,34.744 C192.943,34.798 193.429,35.014 194.077,35.176 z M170.857,67.846 L170.857,67.846 C171.127,68.764 171.235,69.898 171.667,70.816 C172.693,73.138 175.015,74.866 178.201,74.218 C179.389,73.948 179.929,73.138 180.631,72.436 C182.143,70.87 183.547,69.142 184.249,66.982 C184.735,65.47 184.249,64.768 182.683,64.606 C179.875,64.282 177.067,63.958 174.259,63.526 C172.909,63.31 171.883,63.688 171.451,64.984 C171.181,65.848 171.073,66.82 170.857,67.846 z M169.723,52.996 L169.723,52.996 C171.235,53.158 171.883,52.78 172.045,51.646 C172.153,50.89 171.991,50.08 172.045,49.324 C172.099,48.298 171.613,47.596 170.641,47.488 C169.561,47.38 169.399,48.406 169.399,49.162 C169.399,50.458 169.615,51.754 169.723,53.05 z M194.833,49.378 L194.833,49.378 C194.887,49.378 194.941,49.432 195.049,49.432 C195.049,49.756 194.941,50.134 195.049,50.404 C195.211,50.782 195.535,51.16 195.913,51.376 C196.021,51.43 196.615,51.106 196.723,50.836 C197.209,49.756 197.479,48.568 196.993,47.434 C196.669,46.678 196.075,46.516 195.643,47.218 C195.265,47.866 195.103,48.622 194.833,49.378 z M165.457,40.954 L165.457,40.954 C165.511,40.738 165.619,40.576 165.619,40.36 C165.511,38.902 166.537,37.012 167.887,36.526 C168.373,36.364 169.237,36.418 169.561,36.688 C170.155,37.228 170.587,38.038 170.965,38.74 C171.289,39.28 171.505,39.604 171.991,38.956 C170.209,35.824 169.129,35.068 167.509,35.824 C165.727,36.634 164.539,39.172 165.403,40.9 z M187.003,55.804 L187.003,55.804 C187.003,57.046 187.759,57.478 188.569,57.856 C190.081,58.558 190.135,58.72 189.433,60.232 C189.217,60.664 188.947,61.042 188.731,61.42 C188.623,61.636 188.515,61.906 188.461,62.122 C188.515,62.176 188.623,62.23 188.677,62.284 C188.893,62.122 189.163,62.014 189.217,61.798 C189.703,60.826 190.189,59.854 190.567,58.882 C190.837,58.234 190.513,57.91 189.811,57.586 C189.001,57.208 188.299,56.614 187.543,56.074 C187.381,55.966 187.219,55.912 186.949,55.75 z" fill="#FDDDCF" id="path3214"/>
      <path d="M166.591,24.754 C163.297,27.022 160.219,29.506 157.843,32.584 C154.765,36.58 151.903,40.792 150.391,45.652 C149.041,49.972 148.825,54.454 149.257,58.936 C149.419,60.394 149.527,61.906 149.905,63.31 C150.337,64.822 151.093,66.28 151.795,67.738 C153.523,71.14 156.007,73.894 159.463,76.054 C158.815,76.27 158.383,76.486 157.951,76.486 C155.197,76.594 152.389,76.81 149.635,76.648 C148.771,76.594 147.907,75.622 147.205,74.866 C143.587,71.194 141.319,66.766 140.401,61.69 C139.753,57.964 139.267,54.238 139.861,50.512 C141.103,42.628 144.019,35.446 149.473,29.452 C151.957,26.752 154.495,24.052 157.789,22.324 C159.193,21.568 160.759,21.19 162.379,20.542 C161.245,20.164 160.165,20.488 159.193,20.974 C157.411,21.946 155.629,22.864 154.063,24.16 C148.501,28.804 143.965,34.204 141.697,41.278 C140.833,43.978 139.537,46.57 139.213,49.486 C138.835,52.672 138.889,55.804 139.267,58.99 C139.645,62.392 140.401,65.632 141.913,68.71 C143.263,71.464 144.937,74.002 147.205,76.108 C147.151,76.216 147.151,76.27 147.097,76.378 C144.343,75.892 141.535,75.46 138.835,74.974 C138.457,72.922 136.729,71.896 134.947,72.814 C133.813,73.354 132.949,73.138 131.923,72.706 C129.979,71.842 128.035,70.978 126.523,69.466 C126.253,69.196 126.037,68.764 125.929,68.386 C125.605,66.712 125.389,65.038 124.957,63.418 C124.741,62.716 124.201,62.014 123.661,61.528 C122.905,60.772 122.203,61.474 121.393,62.122 C120.961,60.664 120.475,59.422 120.259,58.126 C119.935,55.642 119.557,53.158 119.665,50.728 C119.773,47.596 120.151,44.464 120.799,41.44 C122.095,35.5 124.417,29.938 127.441,24.646 C130.411,19.462 134.461,15.142 139.159,11.47 C142.345,8.986 145.909,7.204 149.959,6.718 C150.823,6.61 151.687,6.664 152.497,6.826 C152.875,6.88 153.253,7.258 153.469,7.582 C155.683,10.768 157.843,14.062 160.165,17.248 C161.839,19.516 163.675,21.73 165.457,23.944 C165.727,24.322 166.105,24.592 166.483,24.916 z M148.987,23.296 L148.987,23.296 C148.933,23.188 148.825,23.134 148.771,23.026 C147.907,23.674 146.989,24.214 146.233,24.916 C142.291,28.804 139.213,33.394 137.161,38.524 C134.731,44.626 133.921,51.106 133.921,57.64 C133.921,62.554 135.001,67.036 138.079,70.978 C138.295,71.248 138.565,71.41 138.781,71.68 C138.889,71.626 138.997,71.518 139.051,71.464 C138.889,71.14 138.727,70.816 138.511,70.492 C137.647,68.98 136.675,67.576 135.919,66.01 C134.407,62.716 134.407,59.098 134.515,55.588 C134.623,52.186 135.163,48.784 135.757,45.436 C137.107,37.768 140.941,31.342 146.233,25.726 C147.043,24.862 148.069,24.16 148.987,23.35 z M132.841,71.302 L132.841,71.302 C132.949,71.302 133.057,71.302 133.219,71.248 C133.165,70.924 133.273,70.546 133.111,70.33 C130.087,66.01 128.467,61.15 128.359,55.912 C128.197,49.324 129.439,42.844 130.897,36.418 C132.193,30.532 134.677,25.51 139.159,21.568 C139.267,21.46 139.321,21.244 139.375,21.028 C139.213,21.028 139.159,20.974 139.159,21.028 C139.051,21.082 138.889,21.136 138.781,21.244 C135.325,24.268 132.733,27.832 131.437,32.26 C129.763,37.984 128.521,43.816 127.981,49.756 C127.603,54.184 127.495,58.558 128.845,62.824 C129.763,65.848 131.059,68.71 132.841,71.356 z" fill="#8F6548" id="path3216"/>
      <path d="M180.037,115.906 C177.283,117.472 176.257,117.364 173.827,115.528 C172.639,114.61 171.289,113.908 170.155,112.936 C169.021,111.964 168.049,110.776 167.023,109.696 C166.591,109.264 165.997,108.508 165.727,108.616 C165.133,108.832 164.431,109.372 164.215,109.966 C163.891,110.722 163.783,111.64 163.891,112.45 C164.107,114.34 164.809,116.068 166.105,117.472 C163.945,118.552 161.785,119.524 159.733,120.766 C158.437,121.522 157.303,122.548 156.169,123.574 C155.359,124.33 156.061,125.14 156.547,125.626 C157.951,127.03 158.815,128.542 158.059,130.54 C157.951,130.81 158.059,131.134 158.059,131.458 C158.221,131.458 158.329,131.512 158.491,131.512 C158.707,130.486 158.923,129.514 159.193,128.326 C162.379,131.296 166.267,131.728 170.479,131.998 C170.479,133.024 170.479,134.104 170.479,135.184 C170.641,135.184 170.749,135.238 170.911,135.238 C171.019,134.968 171.127,134.698 171.127,134.428 C171.127,134.05 171.073,133.672 171.019,133.294 C170.857,132.322 171.343,131.944 172.315,131.782 C173.773,131.512 175.339,131.188 176.581,130.486 C177.607,129.946 178.363,128.758 179.227,127.894 C179.497,127.624 179.605,127.246 179.983,126.706 C180.253,130 180.523,133.024 180.847,136.102 C180.955,136.156 181.063,136.21 181.171,136.21 C181.279,135.886 181.549,135.562 181.495,135.238 C181.387,134.104 181.117,132.97 181.009,131.836 C180.739,129.028 180.523,126.166 180.415,123.304 C180.415,122.98 181.009,122.548 181.387,122.332 C181.819,122.116 182.359,122.116 182.953,121.954 C183.493,122.872 184.033,123.898 184.627,124.924 C185.329,126.166 186.085,127.408 186.733,128.704 C187.057,129.352 187.435,129.352 187.921,129.028 C188.191,128.866 188.407,128.65 188.677,128.542 C189.973,128.056 191.269,127.516 192.619,127.03 C193.483,128.488 193.753,130.27 194.779,131.62 C194.887,131.566 195.049,131.512 195.157,131.404 C194.671,130.162 194.239,128.866 193.645,127.678 C193.213,126.814 193.537,126.274 194.131,125.734 C195.535,124.492 196.885,123.196 198.343,121.954 C199.585,120.874 200.881,119.794 202.069,118.768 C202.555,119.74 203.257,121.09 203.959,122.44 C204.499,123.412 204.931,124.438 205.579,125.356 C206.173,126.166 205.849,126.544 205.309,127.084 C203.149,129.082 200.665,130.486 197.965,131.566 C194.239,133.078 190.459,134.482 186.679,135.778 C185.437,136.21 184.033,136.102 182.737,136.318 C178.903,136.804 175.123,136.534 171.343,136.102 C169.075,135.832 166.753,135.184 164.593,134.428 C162.109,133.618 159.625,132.646 157.357,131.458 C154.549,130 151.849,128.272 149.689,125.842 C150.877,124.114 152.119,122.386 153.307,120.604 C156.169,116.392 157.843,111.694 159.463,106.942 C161.029,102.406 163.027,98.032 164.809,93.55 C165.133,92.74 165.511,91.984 165.889,91.012 C167.401,91.822 168.859,92.578 170.317,93.388 C171.667,94.09 172.963,94.846 174.259,95.548 C175.933,96.466 177.661,96.25 179.443,96.088 C184.411,95.71 188.731,93.712 192.835,91.066 C193.051,90.904 193.483,90.904 193.699,91.012 C195.535,91.768 197.425,92.416 199.207,93.334 C200.395,93.982 201.637,94.792 202.501,95.872 C204.931,98.734 206.551,101.974 206.767,105.916 C206.875,108.238 206.065,110.182 205.093,112.18 C203.203,115.96 200.611,119.2 197.425,122.062 C196.723,122.71 196.075,123.466 195.319,124.06 C194.185,124.978 192.997,125.842 191.809,126.652 C191.161,127.084 190.621,126.868 190.135,126.22 C187.327,122.386 184.519,118.552 181.711,114.718 C181.387,114.286 181.063,113.854 180.793,113.584 C182.953,112.18 185.113,110.83 187.165,109.318 C190.405,106.996 192.781,103.918 193.753,100.03 C193.969,99.058 193.537,97.87 193.429,96.79 C193.267,96.79 193.159,96.736 192.997,96.736 C192.889,96.952 192.619,97.222 192.673,97.33 C193.753,99.598 192.619,101.488 191.647,103.324 C190.621,105.268 189.163,106.834 187.381,108.292 C187.057,106.186 186.841,104.188 186.355,102.244 C185.923,100.408 186.031,98.464 185.329,96.682 C185.167,96.736 185.005,96.736 184.843,96.79 C185.113,98.464 185.383,100.138 185.653,101.812 C185.977,103.702 186.301,105.646 186.625,107.536 C186.787,108.4 186.571,109.102 185.707,109.588 C184.681,110.182 183.763,110.992 182.737,111.532 C181.819,112.018 180.793,112.288 179.821,112.504 C179.065,112.666 178.795,112.936 179.065,113.638 C179.389,114.448 179.767,115.204 180.145,116.068 z M172.639,95.872 L172.639,95.872 C172.477,95.872 172.369,95.926 172.207,95.926 C171.451,101.002 170.695,106.078 170.371,111.208 C170.533,111.262 170.749,111.262 170.911,111.316 C171.019,110.884 171.235,110.452 171.235,110.02 C171.289,109.264 171.127,108.454 171.235,107.698 C171.721,103.972 172.261,100.246 172.801,96.52 C172.855,96.304 172.693,96.088 172.639,95.872 z M163.675,107.698 L163.675,107.698 C163.837,107.806 164.053,107.86 164.215,107.968 C165.079,106.618 165.349,104.944 165.943,103.486 C166.591,101.866 167.077,100.246 167.617,98.626 C168.157,97.114 168.643,95.602 169.183,94.09 C169.021,94.036 168.859,93.982 168.697,93.928 C166.753,98.41 165.781,103.27 163.675,107.698 z M179.281,111.694 L179.281,111.694 C179.173,109.804 179.065,108.184 179.011,106.51 C178.903,103.864 178.849,101.164 178.741,98.518 C178.741,98.248 178.525,97.978 178.417,97.708 C177.931,99.976 178.579,111.208 179.281,111.694 z" fill="#F6AFCE" id="path3218"/>
      <path d="M214.813,50.188 C214.597,48.892 214.381,47.596 214.219,46.3 C213.841,43.654 212.707,41.278 211.087,39.172 C210.709,38.686 210.223,38.308 209.791,37.876 C205.633,34.096 200.881,31.234 195.751,29.02 C191.377,27.13 186.895,25.456 182.629,23.296 C177.121,20.542 171.937,17.14 167.563,12.766 C165.511,10.714 163.513,8.662 161.515,6.61 C161.353,6.448 161.137,6.34 160.975,6.178 C160.921,6.232 160.813,6.286 160.759,6.34 C160.975,6.718 161.137,7.204 161.461,7.528 C165.187,11.632 169.237,15.304 173.719,18.598 C177.769,21.514 182.089,23.836 186.571,25.996 C189.541,27.4 192.673,28.372 195.589,29.722 C199.315,31.45 203.095,33.07 206.443,35.986 C205.201,35.878 204.175,35.878 203.203,35.716 C200.935,35.392 198.667,35.014 196.399,34.69 C193.645,34.312 190.891,34.042 188.191,33.61 C182.197,32.692 176.527,30.748 171.289,27.67 C168.265,25.888 166.105,23.242 163.891,20.65 C162.163,18.598 160.543,16.492 158.977,14.332 C157.195,11.794 155.575,9.148 153.901,6.556 C156.817,4.396 159.895,3.262 163.027,2.128 C167.131,0.67 171.397,0.454 175.609,0.886 C180.739,1.372 185.707,2.56 190.405,4.774 C193.537,6.232 196.561,7.744 199.369,9.688 C202.231,11.686 204.499,14.278 206.767,16.924 C210.007,20.65 212.005,25.024 213.355,30.046 C210.871,25.942 207.793,22.756 204.337,19.894 C201.367,17.356 198.019,15.52 194.509,13.954 C193.537,13.522 192.727,12.82 191.755,12.442 C189.595,11.632 187.435,10.984 185.275,10.174 C183.493,9.526 181.765,8.824 179.983,8.122 C177.715,7.258 175.393,6.394 173.125,5.584 C172.207,5.26 171.235,5.152 170.155,5.152 C170.533,5.368 170.965,5.638 171.397,5.8 C173.341,6.448 175.285,7.042 177.175,7.744 C181.117,9.094 185.113,10.444 189.055,11.902 C190.459,12.442 191.755,13.198 193.105,13.846 C195.157,14.872 197.317,15.736 199.261,16.978 C201.637,18.544 204.013,20.164 206.065,22.162 C208.279,24.268 210.223,26.752 212.167,29.128 C214.111,31.45 214.705,34.366 215.083,37.228 C215.623,41.548 215.839,45.868 214.867,50.188 z M209.845,32.206 L209.845,32.206 C209.953,31.882 210.007,31.774 210.007,31.72 C209.953,31.558 209.899,31.396 209.791,31.234 C207.415,27.832 204.769,24.754 200.989,22.756 C198.883,21.676 196.777,20.65 194.563,19.84 C189.541,18.004 184.573,16.006 179.713,13.846 C175.825,12.118 172.045,10.174 168.211,8.284 C166.861,7.636 165.511,6.934 164.215,6.286 C164.431,6.772 164.755,7.15 165.133,7.366 C167.455,8.662 169.777,9.958 172.207,11.092 C176.473,13.09 180.793,15.088 185.167,16.924 C188.083,18.166 191.053,19.462 194.131,20.326 C197.155,21.19 199.855,22.702 202.501,24.268 C205.417,25.996 207.415,28.642 209.413,31.288 C209.575,31.504 209.791,31.774 210.061,32.152 z" fill="#8F6548" id="path3220"/>
      <path d="M148.393,141.016 C150.607,137.506 152.713,134.212 154.765,130.972 C157.357,132.106 159.841,133.402 162.433,134.32 C166.051,135.616 169.831,136.696 173.719,136.858 C175.717,136.966 177.769,137.074 179.767,137.074 C183.871,137.02 187.813,136.318 191.593,134.698 C194.077,133.618 196.669,132.754 199.153,131.62 C200.935,130.81 202.609,129.73 204.391,128.758 C205.471,130.54 206.605,132.484 207.793,134.428 C208.279,135.238 208.765,136.102 209.359,136.858 C209.899,137.56 209.899,138.208 209.629,139.018 C208.819,141.664 206.713,143.068 204.769,144.742 C200.989,147.928 196.561,149.656 191.863,150.952 C189.757,151.546 187.597,152.032 185.437,152.194 C181.873,152.41 178.201,152.518 174.637,152.248 C171.181,151.924 167.617,151.816 164.323,150.412 C161.515,149.17 158.653,147.982 155.953,146.524 C153.577,145.228 151.417,143.554 149.149,142.042 C148.771,141.772 148.555,141.34 148.285,141.07 z" fill="#90C74A" id="path3222"/>
      <path d="M163.243,94.414 C161.731,98.464 160.219,102.406 158.707,106.402 C158.437,107.158 158.113,107.968 157.951,108.778 C157.735,110.074 156.979,110.83 155.791,111.262 C153.577,112.072 151.417,113.044 149.149,113.746 C146.449,114.556 143.695,114.448 140.887,113.908 C137.809,113.314 134.947,112.234 132.085,111.1 C130.573,110.506 129.169,109.588 127.711,108.832 C130.411,103.756 133.111,98.734 135.811,93.604 C136.675,94.09 137.701,94.576 138.673,95.17 C141.319,96.682 144.019,98.086 146.665,99.652 C148.933,101.002 151.093,100.786 153.307,99.652 C156.331,98.086 159.409,96.574 162.433,95.062 C162.703,94.9 162.973,94.684 163.243,94.522 z" fill="#F6AFCE" id="path3224"/>
      <path d="M120.151,79.672 C119.719,79.942 119.287,80.212 118.693,80.536 C118.315,79.834 117.829,79.132 117.559,78.376 C116.533,75.514 115.507,72.652 114.643,69.736 C114.427,68.98 114.481,68.008 114.643,67.198 C114.967,65.902 115.885,65.632 116.641,66.712 C117.613,68.116 118.423,69.628 119.125,71.194 C120.043,73.3 120.745,75.514 121.501,77.62 C121.609,77.836 121.771,78.052 121.771,78.322 C121.933,79.294 122.203,79.726 123.067,78.862 C123.175,78.754 123.391,78.7 123.553,78.7 C124.309,78.7 124.255,78.376 124.039,77.782 C123.499,76.162 123.013,74.488 122.635,72.814 C122.095,70.6 121.609,68.386 121.285,66.172 C121.123,65.146 121.447,64.066 121.771,63.04 C121.933,62.554 122.635,61.906 123.013,61.96 C123.499,62.014 124.201,62.608 124.363,63.148 C124.795,64.444 125.065,65.794 125.281,67.144 C125.605,69.412 125.659,71.734 126.037,74.002 C126.253,75.244 126.847,76.432 127.441,77.566 C127.981,78.484 128.629,78.43 129.439,77.728 C130.681,76.594 131.923,75.46 133.273,74.434 C133.759,74.056 134.353,73.84 134.947,73.516 C135.973,72.976 137.161,73.246 138.079,74.218 C136.027,76.648 134.353,79.24 133.219,82.21 C132.787,83.236 133.003,84.154 133.327,85.126 C133.921,87.07 134.191,88.96 133.165,90.85 C132.409,92.254 133.381,93.064 134.245,93.928 C133.435,95.17 132.679,96.358 131.815,97.654 C131.275,96.844 130.843,96.196 130.357,95.548 C129.709,94.738 129.061,94.36 127.873,94.684 C124.741,95.44 121.663,95.224 118.963,93.172 C118.315,92.686 117.721,92.038 117.397,91.282 C116.803,90.04 116.263,88.69 115.939,87.34 C115.399,85.072 114.265,83.128 112.969,81.292 C111.349,78.97 110.485,76.54 110.863,73.678 C110.917,73.3 111.079,72.922 111.187,72.598 C112.807,76.324 114.481,79.996 116.101,83.722 C117.721,82.318 119.125,81.13 120.529,79.888 C120.421,79.78 120.313,79.672 120.205,79.51 z M128.143,92.146 L128.143,92.146 C128.143,91.984 128.197,91.822 128.197,91.714 C126.307,91.228 125.389,89.716 125.335,88.096 C125.281,86.53 125.875,84.964 126.199,83.29 C125.983,83.506 125.713,83.668 125.551,83.938 C125.281,84.532 125.011,85.18 124.795,85.828 C124.093,88.096 125.119,90.85 127.009,91.93 C127.333,92.092 127.711,92.092 128.089,92.146 z" fill="#FDDDCF" id="path3226"/>
      <path d="M211.249,108.454 C209.845,108.778 208.441,109.048 206.983,109.426 C207.955,104.08 206.713,99.652 202.123,94.306 C203.473,94.09 203.419,93.064 203.689,92.092 C204.391,89.5 205.147,86.908 205.957,84.37 C206.065,83.992 206.713,83.614 207.145,83.56 C210.925,83.344 213.949,84.856 216.703,87.34 C219.943,90.31 222.373,93.82 223.939,97.924 C224.479,99.382 225.127,100.786 225.613,102.244 C225.829,102.892 225.883,103.594 225.883,104.242 C225.883,104.512 225.505,104.836 225.235,104.944 C224.263,105.322 223.291,105.592 222.265,105.862 C219.457,106.618 216.649,107.32 213.841,108.022 C213.031,108.238 212.167,108.292 211.303,108.4 C211.303,108.4 211.303,108.4 211.303,108.454 z" fill="#FBB24B" id="path3228"/>
      <path d="M165.727,108.886 C166.591,109.966 167.131,110.722 167.671,111.478 C169.183,113.476 171.451,114.556 173.395,115.96 C173.719,116.176 173.989,116.446 174.313,116.716 C175.933,118.012 177.661,118.12 179.389,117.094 C180.199,116.608 180.577,116.77 180.901,117.58 C181.387,118.768 181.981,119.956 182.521,121.198 C181.711,121.414 181.009,121.684 180.253,121.846 C179.659,122.008 179.443,122.332 179.551,122.926 C180.037,125.356 178.957,127.3 177.391,128.866 C176.473,129.784 174.961,130.108 173.665,130.594 C171.019,131.62 168.265,131.188 165.565,130.702 C164.701,130.54 163.837,130.324 162.973,130.108 C165.457,129.46 167.833,128.866 170.263,128.218 C170.209,128.056 170.209,127.84 170.155,127.678 C169.723,127.732 169.345,127.84 168.913,127.894 C166.753,128.272 164.647,128.758 162.487,129.028 C161.731,129.136 160.975,128.704 160.273,128.326 C163.243,127.462 166.213,126.544 169.237,125.68 C169.183,125.518 169.183,125.356 169.129,125.248 C168.805,125.248 168.427,125.248 168.103,125.356 C165.781,126.058 163.459,126.76 161.083,127.462 C159.625,127.894 158.653,127.462 158.167,126.49 C160.057,125.572 161.893,124.6 163.783,123.736 C165.619,122.926 167.563,122.224 169.453,121.522 C169.399,121.36 169.345,121.252 169.345,121.09 C169.075,121.09 168.805,121.09 168.589,121.198 C165.835,122.386 163.081,123.628 160.327,124.762 C159.571,125.086 158.761,125.302 157.951,125.302 C157.573,125.302 156.979,124.87 156.763,124.438 C156.655,124.168 156.979,123.52 157.249,123.25 C159.841,120.82 162.973,119.47 166.267,118.282 C166.861,118.066 167.617,118.12 168.265,118.012 C168.427,118.012 168.589,117.85 168.751,117.742 C168.589,117.58 168.427,117.31 168.319,117.364 C166.699,117.634 166.051,116.446 165.457,115.366 C164.647,113.962 164.215,112.342 164.539,110.722 C164.647,110.074 165.187,109.534 165.619,108.778 z" fill="#FDDDCF" id="path3230"/>
      <path d="M195.589,82.426 C195.535,83.452 195.373,84.478 195.427,85.504 C195.481,88.042 194.293,89.446 192.079,90.688 C187.813,93.01 183.601,95.116 178.579,95.386 C176.203,95.494 174.205,94.846 172.261,93.82 C169.831,92.524 167.347,91.228 164.971,89.878 C164.107,89.392 163.297,88.744 162.649,87.988 C162.271,87.556 162.217,86.8 162.217,86.206 C162.217,85.612 162.649,85.288 163.351,85.45 C167.347,86.368 171.451,86.638 175.555,86.746 C177.175,86.8 178.795,86.476 180.415,86.368 C183.655,86.098 186.949,85.936 190.027,84.64 C191.809,83.884 193.591,83.236 195.643,82.48 z" fill="#FBB24B" id="path3232"/>
      <path d="M165.349,169.042 C165.835,168.34 166.105,167.854 166.429,167.53 C168.535,165.316 167.671,162.67 167.401,160.186 C167.077,157.486 166.591,154.786 166.213,152.086 C166.213,151.978 166.267,151.87 166.267,151.924 C169.129,152.302 171.937,152.626 174.529,152.95 C175.123,156.406 175.609,159.646 176.203,162.886 C176.419,164.128 176.851,165.316 178.039,166.072 C178.471,166.342 178.849,166.72 179.227,167.044 C180.631,168.232 180.631,168.394 179.173,169.474 C175.771,171.958 171.937,172.174 168.049,171.202 C167.077,170.932 166.267,169.852 165.403,169.15 z" fill="#F79733" id="path3234"/>
      <path d="M192.835,167.908 C192.997,167.476 192.997,167.314 193.051,167.152 C193.429,166.072 193.537,165.1 192.889,163.912 C191.701,161.806 190.945,159.538 190.027,157.324 C189.379,155.812 188.677,154.3 187.975,152.896 C190.837,152.032 193.753,151.168 196.777,150.25 C197.371,152.032 197.965,153.868 198.721,155.704 C199.531,157.702 200.449,159.7 201.475,161.644 C201.691,162.13 202.339,162.454 202.825,162.67 C203.635,162.994 204.499,163.102 205.309,163.372 C205.741,163.534 206.335,164.02 206.335,164.29 C206.281,164.938 206.011,165.856 205.525,166.18 C203.203,167.8 200.503,168.556 197.695,168.718 C196.129,168.772 194.509,168.178 192.835,167.908 z" fill="#F79733" id="path3236"/>
      <path d="M200.881,78.97 C203.635,76.216 206.335,73.516 208.981,70.924 C209.629,71.626 210.385,72.544 211.195,73.408 C211.195,73.462 211.519,73.192 211.573,73.138 C210.925,72.22 210.223,71.356 209.629,70.438 C209.467,70.222 209.467,69.79 209.575,69.574 C210.331,68.116 211.195,66.658 212.059,65.038 C212.275,67.576 213.895,69.25 215.461,70.978 C215.947,71.464 216.055,71.464 216.595,70.87 C214.165,69.196 212.761,66.874 212.383,63.958 C212.383,63.85 212.437,63.688 212.437,63.526 C212.923,61.366 213.355,59.26 213.841,57.1 C213.895,56.83 214.003,56.56 214.165,56.02 C216.541,60.718 220.321,63.31 225.289,64.714 C218.647,72.274 211.303,78.376 200.773,78.97 z" fill="#8F6548" id="path3238"/>
      <path d="M223.507,76.972 C222.859,82.048 222.265,86.854 221.617,91.93 C217.729,86.908 213.733,82.588 206.821,82.588 C208.333,81.67 209.899,80.752 211.411,79.834 C211.303,79.672 211.249,79.564 211.141,79.402 C209.521,80.32 207.955,81.238 206.227,82.156 C205.039,81.4 203.797,80.536 202.447,79.672 C203.581,79.402 204.769,79.078 205.903,78.754 C207.361,78.322 208.873,77.944 210.331,77.458 C212.653,76.702 214.975,76.324 217.405,76.54 C219.295,76.702 221.185,76.81 223.453,76.972 z" fill="#FBB24B" id="path3240"/>
      <path d="M199.207,191.668 C196.669,191.56 194.995,191.398 193.375,190.318 C190.783,188.59 191.161,184.918 192.781,183.082 C194.131,181.57 195.697,181.03 197.695,180.868 C200.935,180.598 203.581,182.11 206.389,183.298 C206.659,183.406 206.875,183.622 207.091,183.784 C208.333,184.918 208.495,185.728 207.469,186.97 C205.201,189.886 202.177,191.344 199.207,191.614 z" fill="#F6AFCE" id="path3242"/>
      <path d="M181.765,180.004 C185.491,179.788 188.623,182.758 188.731,186.16 C188.731,186.862 188.785,187.51 188.677,188.212 C188.245,190.21 187.489,190.858 185.383,191.182 C182.683,191.56 179.983,191.398 177.553,190.102 C176.473,189.508 175.447,188.86 174.421,188.212 C173.665,187.726 173.503,187.024 173.989,186.214 C175.501,183.676 177.391,181.516 180.199,180.328 C180.685,180.112 181.225,180.112 181.765,180.004 z" fill="#F6AFCE" id="path3244"/>
      <path d="M204.985,85.396 C202.393,85.774 200.233,87.07 198.127,88.582 C198.937,86.692 199.747,84.856 200.503,82.966 C200.449,82.912 200.341,82.804 200.287,82.75 C200.017,83.074 199.639,83.398 199.477,83.776 C198.613,85.774 197.749,87.826 196.939,89.824 C196.723,90.31 196.507,90.742 196.291,91.228 C195.589,90.958 194.887,90.634 194.239,90.364 C194.185,90.256 194.077,90.094 194.023,89.986 C194.239,89.932 194.401,89.824 194.617,89.77 C195.913,89.446 196.075,88.528 196.021,87.34 C195.967,85.558 196.075,83.83 196.129,82.048 C196.129,81.886 196.237,81.724 196.345,81.616 C199.099,79.078 202.555,79.24 205.201,82.102 C205.417,82.318 205.525,82.75 205.471,83.074 C205.363,83.83 205.201,84.532 205.039,85.342 z" fill="#FBB24B" id="path3246"/>
      <path d="M181.063,178.924 C179.389,179.95 177.661,180.976 175.825,182.11 C174.853,180.436 173.233,178.978 172.909,176.764 C172.801,176.062 172.639,175.36 173.449,174.766 C174.529,173.902 175.609,173.416 176.851,174.172 C177.445,174.496 177.931,175.036 178.363,175.576 C179.335,176.764 180.307,177.952 181.117,178.978 z" fill="#F6AFCE" id="path3248"/>
      <path d="M175.393,182.92 C174.583,184.054 173.827,185.134 173.017,186.268 C171.775,184.648 170.155,183.19 169.669,181.084 C169.237,179.302 170.479,176.008 172.045,175.036 C171.505,178.384 173.989,180.382 175.339,182.92 z" fill="#F6AFCE" id="path3250"/>
      <path d="M196.993,91.336 C198.019,88.96 202.285,86.098 204.553,86.368 C203.905,88.636 203.311,90.904 202.555,93.118 C202.447,93.388 201.529,93.658 201.151,93.496 C199.747,92.902 198.451,92.092 196.993,91.336 z" fill="#FBB24B" id="path3252"/>
      <path d="M116.425,82.642 C114.643,79.51 113.185,76.324 112.213,72.976 C111.997,72.166 112.051,71.248 112.105,70.384 C112.159,69.574 112.699,69.034 113.455,68.926 C114.157,71.086 114.805,73.192 115.507,75.298 C116.047,76.864 116.695,78.376 117.451,79.834 C117.937,80.806 118.045,81.454 117.019,82.048 C116.803,82.156 116.641,82.372 116.317,82.642 z" fill="#FDDDCF" id="path3254"/>
      <path d="M199.315,169.42 C200.665,168.988 201.961,168.61 203.311,168.178 C203.419,168.34 203.473,168.502 203.581,168.61 C204.175,170.23 204.715,171.85 206.065,173.038 C206.605,173.524 206.929,174.226 206.173,174.766 C205.903,174.982 205.309,175.09 205.039,174.982 C203.527,174.172 201.907,174.334 200.233,174.496 C201.367,172.552 199.477,171.202 199.315,169.42 z" fill="#FFF212" id="path3256"/>
      <path d="M196.777,180.004 C197.965,178.492 199.045,177.25 200.017,175.846 C200.773,174.712 203.743,174.928 204.607,175.954 C205.093,176.548 203.959,180.436 203.203,180.652 C203.095,180.706 202.987,180.652 202.879,180.652 C201.907,180.436 200.935,180.112 199.963,180.004 C198.991,179.896 197.965,180.004 196.777,180.004 z" fill="#F6AFCE" id="path3258"/>
      <path d="M208.819,184.108 C207.253,183.082 205.687,182.11 204.229,181.192 C204.607,179.68 205.039,178.114 205.417,176.602 C205.471,176.332 205.633,176.116 205.849,175.9 C206.281,175.522 206.767,175.144 207.253,174.766 C208.279,177.844 209.737,180.868 208.765,184.108 z" fill="#F6AFCE" id="path3260"/>
      <path d="M180.253,113.908 C183.385,118.228 186.517,122.602 189.649,126.976 C188.947,127.354 188.245,127.732 187.435,128.164 C184.357,123.736 182.305,118.768 180.199,113.854 z" fill="#FFF212" id="path3262"/>
      <path d="M125.443,108.022 C128.251,103.972 130.951,99.976 133.705,95.98 C133.759,95.98 133.759,96.034 133.813,96.034 C133.381,96.898 132.895,97.816 132.463,98.68 C130.843,101.65 129.169,104.566 127.603,107.59 C127.063,108.67 126.415,108.508 125.443,108.076 z" fill="#FFF212" id="path3264"/>
      <path d="M172.369,174.712 C172.261,173.74 172.153,173.146 172.045,172.444 C173.449,172.282 174.853,172.066 176.419,171.904 C176.473,172.282 176.581,172.66 176.689,173.2 C175.015,172.984 173.611,173.308 172.369,174.766 z" fill="#FFF212" id="path3266"/>
      <path d="M171.667,67.522 C171.883,66.658 171.991,65.74 172.261,64.93 C172.531,64.228 173.071,63.958 173.881,64.12 C176.797,64.552 179.713,64.93 182.629,65.254 C183.493,65.362 183.871,65.74 183.601,66.604 C182.737,69.466 181.009,71.626 178.525,73.246 C177.337,74.002 174.421,73.732 173.017,71.788 C172.099,70.492 171.721,69.25 171.667,67.576 z" fill="#F59087" id="path3292"/>
    </g>
    <g id="_153298752">
      <path d="M263.575,40.846 C267.733,45.328 272.107,49.378 278.263,51.322 C278.155,50.89 278.155,50.512 277.993,50.242 C275.725,45.868 274.159,41.224 272.809,36.418 C278.155,43.546 284.203,49.756 293.329,52.132 C292.411,50.998 291.493,49.864 290.683,48.622 C289.765,47.272 289.009,45.868 288.199,44.464 C287.443,43.114 286.687,41.764 286.093,40.198 C286.741,40.63 287.389,41.116 288.037,41.548 C293.167,45.004 298.513,48.19 303.913,51.16 C308.989,53.968 314.011,56.884 319.141,59.692 C320.167,60.232 321.355,60.448 322.381,60.88 C322.651,60.988 322.975,61.366 322.975,61.636 C323.191,63.526 323.353,65.362 323.461,67.252 C323.623,70.924 323.785,74.596 323.947,78.322 C323.947,78.808 324.109,79.24 324.217,79.726 C324.325,79.78 324.433,79.834 324.541,79.834 C324.811,79.456 325.135,79.078 325.297,78.646 C325.675,77.728 325.729,76.648 326.269,75.892 C326.971,74.92 327.295,73.786 327.781,72.76 C328.699,70.978 330.265,70.006 332.209,69.79 C333.775,69.628 335.179,70.384 336.097,71.626 C338.797,75.136 336.313,82.156 332.047,83.29 C330.643,83.668 329.077,83.128 328.213,81.994 C328.051,81.778 327.727,81.67 327.511,81.508 C327.457,81.832 327.349,82.102 327.295,82.426 C327.025,84.208 326.971,86.044 326.539,87.772 C325.729,91.12 324.649,94.36 322.705,97.33 C321.787,98.68 320.545,99.328 319.303,100.03 C315.415,102.298 311.095,103.648 306.883,105.16 C305.263,105.754 303.373,105.7 301.699,106.186 C298.351,107.104 294.949,107.158 291.547,106.996 C289.927,106.888 288.307,107.158 286.687,107.104 C282.529,106.942 278.371,106.402 274.375,105.268 C268.759,103.702 263.629,101.164 259.147,97.492 C256.447,95.278 254.125,92.416 252.127,89.5 C248.563,84.37 247.051,78.376 246.781,72.22 C246.565,68.116 247.267,64.066 248.509,60.124 C249.805,56.074 252.289,52.78 254.881,49.594 C257.041,46.894 259.525,44.464 261.901,41.98 C262.387,41.494 263.035,41.116 263.575,40.738 z M290.737,69.898 L290.737,69.898 C290.845,70.708 290.953,71.356 291.115,72.004 C291.277,72.652 291.601,73.138 292.465,73.084 C293.221,73.03 293.707,72.76 293.815,72.058 C294.031,70.6 294.301,69.142 294.409,67.684 C294.463,66.874 294.193,66.172 293.221,66.118 C292.357,66.064 291.601,66.334 291.331,67.306 C291.115,68.224 290.899,69.088 290.737,69.898 z M274.159,87.394 L274.159,87.394 C273.997,87.34 273.889,87.286 273.727,87.286 C273.565,87.772 273.187,88.258 273.241,88.636 C273.403,89.716 273.511,90.904 274.105,91.714 C276.265,94.792 279.397,95.71 283.015,95.278 C286.849,94.792 289.441,92.632 290.629,88.906 C290.683,88.636 290.521,88.366 290.467,88.042 C290.305,88.258 290.035,88.42 289.981,88.69 C289.387,90.904 287.983,92.416 286.039,93.55 C283.123,95.224 280.153,94.9 277.291,93.604 C275.347,92.74 274.105,91.282 273.997,89.014 C273.997,88.474 274.105,87.934 274.159,87.394 z M268.219,67.414 L268.219,67.414 C268.435,68.332 268.543,69.358 268.867,70.222 C269.029,70.654 269.947,71.248 270.163,71.14 C270.649,70.816 271.189,70.222 271.297,69.682 C271.513,68.494 271.621,67.198 271.513,66.01 C271.459,65.416 271.027,64.552 270.541,64.336 C269.893,64.012 269.137,64.498 268.867,65.254 C268.597,65.956 268.435,66.658 268.219,67.414 z M292.141,56.56 L292.141,56.56 C292.357,56.02 292.573,55.48 292.843,54.94 C293.437,53.752 294.949,52.78 295.975,52.888 C297.163,53.05 298.027,54.238 298.135,55.804 C298.189,56.344 298.297,56.83 298.351,57.37 C299.107,56.884 299.107,55.48 298.567,54.022 C298.135,52.834 296.299,51.808 294.949,52.186 C293.113,52.726 291.655,54.616 292.087,56.506 z M269.299,56.074 L269.299,56.074 C270.109,54.508 270.379,52.402 272.701,52.24 C274.375,52.132 275.455,53.212 276.427,56.128 C276.643,55.912 276.913,55.588 276.859,55.372 C276.697,54.724 276.427,54.076 276.103,53.536 C275.077,51.754 273.457,51.106 271.729,51.7 C270.325,52.186 268.975,54.454 269.353,56.128 z M329.779,76.432 L329.779,76.432 C330.157,75.73 330.481,74.866 330.967,74.164 C331.453,73.462 332.101,72.814 332.695,72.166 C332.641,72.058 332.533,71.95 332.479,71.842 C332.047,72.112 331.507,72.274 331.291,72.652 C330.373,74.326 329.509,76 328.645,77.728 C328.537,77.944 328.699,78.322 328.699,78.646 C328.969,78.484 329.293,78.376 329.455,78.16 C330.211,77.188 331.021,76.594 332.317,77.08 C332.479,77.134 332.695,76.918 332.911,76.81 C332.749,76.648 332.641,76.324 332.479,76.324 C331.615,76.324 330.751,76.432 329.779,76.486 z M270.271,77.404 L270.271,77.404 C270.919,78.484 271.513,79.348 272.107,80.266 C272.215,80.428 272.485,80.482 272.701,80.59 C272.701,80.32 272.809,80.05 272.701,79.834 C272.323,79.186 271.945,78.592 271.513,77.998 C274.051,76.216 274.591,75.46 273.781,74.704 C273.187,76.216 272.107,77.242 270.271,77.404 z" fill="#FDDDCF" id="path3297"/>
      <path d="M328.159,83.182 C331.129,85.288 333.505,84.262 335.719,81.562 C337.771,79.186 338.419,76.378 337.555,73.138 C336.583,69.628 332.101,67.738 328.699,70.654 C326.863,72.22 326.377,74.542 325.297,76.54 C325.081,76.918 324.973,77.296 324.541,77.674 C324.379,75.784 324.217,73.894 324.163,71.95 C324.001,68.764 323.947,65.578 323.839,62.338 C323.839,62.176 323.785,61.96 323.839,61.906 C325.243,60.61 323.731,60.61 323.137,60.448 C319.141,59.314 315.685,57.154 312.175,55.102 C307.099,52.186 301.969,49.378 296.893,46.408 C293.815,44.572 290.899,42.52 287.929,40.576 C287.173,40.036 286.417,39.496 285.607,38.956 C285.391,38.794 285.067,38.848 284.419,38.686 C286.363,43.06 288.631,46.84 291.169,50.674 C282.151,47.488 276.751,40.468 271.405,33.34 C272.647,39.064 274.483,44.518 277.021,49.756 C276.967,49.864 276.859,49.918 276.805,50.026 C276.049,49.648 275.239,49.378 274.591,48.892 C272.809,47.704 271.027,46.516 269.299,45.274 C266.869,43.492 264.763,41.386 263.197,38.848 C261.901,36.742 260.875,34.528 259.795,32.26 C259.309,31.234 259.687,30.316 260.551,29.614 C262.387,28.156 264.547,27.508 266.923,27.886 C267.247,27.94 267.625,27.886 267.895,27.778 C270.649,26.698 273.403,25.51 276.211,24.538 C278.803,23.62 281.449,22.702 284.149,22.162 C288.685,21.244 293.275,20.164 297.919,20.434 C300.457,20.596 302.995,21.19 305.533,21.784 C310.609,22.918 315.037,25.564 319.087,28.642 C322.759,31.396 326.269,34.42 328.861,38.308 C330.913,41.332 333.235,44.194 334.585,47.704 C335.989,51.43 337.879,54.94 339.121,58.666 C339.877,60.988 339.931,63.58 340.201,66.064 C340.417,68.008 340.633,70.006 340.579,72.004 C340.525,75.19 340.039,78.376 338.851,81.346 C336.907,86.368 334.585,91.12 331.345,95.386 C330.103,97.006 328.807,98.572 327.403,100.3 C327.187,99.976 327.079,99.814 327.079,99.706 C326.809,98.68 326.593,98.572 325.675,99.112 C324.109,100.03 322.597,100.948 321.031,101.812 C320.329,102.19 319.573,102.406 318.763,102.73 C318.763,102.244 318.817,101.758 318.817,101.164 C319.843,100.624 321.085,100.192 322.003,99.328 C323.029,98.356 323.785,97.114 324.487,95.872 C326.215,93.01 326.809,89.824 327.511,86.638 C327.781,85.504 327.943,84.37 328.159,83.074 z M336.043,65.848 L336.043,65.848 C336.259,65.47 336.313,65.47 336.313,65.416 C336.259,65.038 336.151,64.66 336.097,64.336 C335.503,60.34 334.531,56.452 331.885,53.266 C329.995,50.944 328.159,48.406 325.945,46.408 C322.003,42.736 317.305,40.036 312.607,37.444 C309.907,35.986 307.207,34.528 304.399,33.232 C299.755,31.072 295.057,29.02 290.359,26.914 C289.711,26.644 289.063,26.32 288.415,25.996 C288.361,26.104 288.253,26.158 288.199,26.266 C288.415,26.482 288.577,26.806 288.793,26.914 C292.573,28.642 296.353,30.478 300.187,32.044 C305.803,34.366 311.203,37.12 316.387,40.36 C321.139,43.33 325.945,46.192 329.293,50.944 C330.535,52.726 331.939,54.4 333.019,56.29 C334.531,58.936 335.287,61.798 335.503,64.822 C335.503,65.146 335.827,65.416 336.097,65.794 z M282.475,30.154 L282.475,30.154 C282.367,30.316 282.313,30.424 282.205,30.586 C282.961,31.018 283.717,31.396 284.473,31.882 C289.927,35.554 295.327,39.334 300.835,42.898 C305.263,45.706 309.853,48.244 314.389,50.89 C317.899,52.888 321.301,54.994 324.109,57.964 C324.271,58.18 324.595,58.234 324.865,58.342 C324.919,58.234 324.973,58.18 325.027,58.072 C324.757,57.694 324.487,57.316 324.163,56.992 C321.571,54.4 318.493,52.456 315.361,50.62 C310.069,47.434 304.453,44.788 299.431,41.116 C294.787,37.768 289.927,34.69 285.121,31.558 C284.311,31.018 283.393,30.586 282.475,30.154 z" fill="#7A563B" id="path3299"/>
      <path d="M256.555,133.348 C257.311,130.054 258.013,126.976 258.769,123.898 C259.255,121.738 259.795,119.632 260.281,117.472 C260.605,116.068 260.821,116.014 262.279,116.122 C267.463,116.608 272.593,116.338 277.291,113.746 C280.369,112.072 283.393,110.236 286.471,108.508 C287.119,108.184 287.875,107.968 288.577,107.914 C290.791,107.86 293.005,107.86 295.273,107.914 C298.297,107.968 301.213,107.05 304.129,106.456 C305.641,106.186 307.099,105.646 308.611,105.484 C309.637,105.376 310.771,105.808 311.851,105.862 C314.173,106.024 316.549,106.132 318.925,106.186 C322.489,106.24 326.053,106.456 329.617,106.24 C332.695,106.024 335.773,105.43 338.851,104.836 C339.824,104.674 340.202,104.728 340.417,105.754 C341.173,109.588 341.984,113.476 342.74,117.31 C342.902,118.012 342.578,118.336 341.93,118.282 C340.904,118.228 339.931,118.174 338.906,118.066 C338.743,118.066 338.581,117.85 338.473,117.688 C336.475,115.312 335.935,112.45 335.665,109.534 C335.611,108.724 335.503,107.968 335.449,106.888 C334.531,109.048 336.205,116.176 337.933,117.958 C336.151,117.796 334.477,117.688 332.803,117.526 C330.805,117.364 328.807,117.31 326.863,117.094 C324.055,116.77 321.247,116.284 318.385,115.906 C317.737,115.798 317.143,115.582 316.495,115.582 C314.983,115.582 314.065,114.718 313.417,113.476 C312.715,112.072 312.013,110.668 311.311,109.318 C311.203,109.156 311.041,108.994 310.879,108.832 C310.771,108.832 310.663,108.886 310.555,108.886 C310.609,109.318 310.501,109.804 310.717,110.128 C311.905,112.126 313.093,114.178 314.443,116.122 C315.901,118.228 317.467,120.226 319.033,122.278 C320.005,123.52 321.031,124.708 322.111,125.896 C322.597,126.436 322.651,126.76 322.003,127.192 C319.195,129.136 316.225,130.756 312.985,131.674 C308.935,132.808 304.831,133.834 300.565,133.402 C299.161,133.294 297.811,132.862 296.191,132.754 C296.461,132.97 296.677,133.348 296.947,133.402 C298.945,133.672 300.943,134.104 302.941,134.05 C308.017,133.942 312.985,132.754 317.575,130.594 C319.627,129.622 321.409,128.002 323.353,126.814 C324.217,126.274 325.189,126.058 326.161,125.734 C326.323,125.68 326.647,126.058 326.755,126.274 C327.565,127.948 328.375,129.676 329.023,131.404 C329.347,132.214 329.023,133.078 328.213,133.672 C325.243,135.994 322.111,137.992 318.655,139.45 C316.765,140.26 314.821,141.016 312.877,141.502 C308.827,142.582 304.777,142.798 300.619,141.718 C296.893,140.746 293.599,138.802 290.089,136.912 C290.899,136.21 291.601,135.67 292.141,135.022 C292.465,134.644 292.789,133.996 292.681,133.564 C291.871,128.866 291.007,124.222 290.035,119.578 C289.549,117.202 288.793,114.826 288.145,112.504 C288.037,112.504 287.875,112.504 287.767,112.504 C287.713,112.882 287.551,113.314 287.659,113.692 C287.983,115.042 288.253,116.446 288.793,117.688 C289.387,119.092 288.955,120.064 288.091,121.036 C285.337,124.276 282.367,127.246 278.749,129.46 C275.617,131.35 272.215,132.43 268.651,132.97 C266.437,133.348 264.169,133.564 261.955,133.618 C260.227,133.672 258.499,133.402 256.663,133.24 z M294.031,123.736 L294.031,123.736 C293.977,123.898 293.923,124.006 293.869,124.168 C294.247,124.33 294.679,124.708 295.057,124.708 C297.487,124.6 300.025,124.87 302.347,124.222 C305.965,123.196 309.367,121.576 312.877,120.172 C313.039,120.118 313.093,119.848 313.147,119.632 C312.931,119.578 312.715,119.416 312.499,119.47 C312.283,119.524 312.067,119.74 311.797,119.848 C306.937,122.44 301.915,124.384 296.299,124.06 C295.543,124.006 294.787,123.898 294.031,123.79 z M306.073,112.234 L306.073,112.234 C305.803,112.288 305.479,112.342 305.209,112.45 C300.889,114.502 296.461,115.96 291.547,114.988 C291.385,114.934 291.169,115.204 290.953,115.366 C293.707,117.256 303.859,114.556 306.073,112.18 z M264.925,118.066 L264.925,118.066 C264.655,122.71 264.385,127.246 264.169,131.836 C265.357,130.594 266.005,119.092 264.925,118.066 z M272.107,117.634 L272.107,117.634 C272.053,117.742 271.945,117.85 271.891,118.012 C273.889,121.198 273.997,125.086 275.563,128.488 C275.779,128.002 275.941,127.516 275.833,127.138 C275.347,125.41 274.861,123.736 274.267,122.008 C273.889,120.766 273.457,119.524 272.917,118.336 C272.809,118.066 272.377,117.904 272.053,117.634 z M279.667,114.826 L279.667,114.826 C279.451,114.934 279.235,114.988 279.235,115.096 C279.235,115.312 279.235,115.528 279.343,115.69 C279.613,116.122 279.991,116.446 280.207,116.878 C281.341,119.092 282.475,121.36 283.609,123.574 C283.717,123.79 284.041,123.898 284.257,124.06 C284.257,123.736 284.365,123.412 284.257,123.142 C283.663,122.008 282.961,120.874 282.313,119.74 C281.557,118.336 280.855,116.878 280.153,115.474 C280.045,115.258 279.829,115.096 279.667,114.88 z M327.457,115.312 L327.457,115.312 C326.917,113.152 326.323,110.938 325.837,108.778 C325.189,110.128 326.161,114.07 327.457,115.312 z M319.303,115.96 L319.303,115.96 C318.925,113.422 318.601,111.1 318.223,108.724 C318.115,108.724 318.061,108.778 317.953,108.778 C318.061,111.154 317.791,113.638 319.303,115.96 z" fill="#FFDD57" id="path3301"/>
      <path d="M295.867,182.542 C295.273,182.434 294.679,182.272 293.869,182.11 C293.869,182.11 293.653,182.326 293.545,182.596 C292.789,184.27 292.087,185.998 291.331,187.672 C291.007,188.428 290.413,189.076 290.035,189.778 C289.657,190.534 289.171,190.75 288.361,190.48 C286.849,189.886 285.337,189.346 283.879,188.698 C278.911,186.376 273.997,184 269.083,181.624 C267.409,180.814 265.735,179.896 264.115,178.978 C263.035,178.33 262.765,177.358 263.251,176.278 C263.629,175.306 264.439,175.036 265.735,175.252 C269.785,175.846 273.835,176.332 277.885,176.872 C279.451,177.088 280.963,177.196 282.691,177.412 C282.529,177.088 282.421,176.872 282.259,176.656 C281.989,176.332 281.611,176.008 281.341,175.684 C280.423,174.496 280.369,174.01 281.557,173.2 C283.987,171.418 285.121,168.718 286.417,166.234 C289.927,159.214 293.275,152.14 296.677,145.066 C297.109,144.202 297.433,143.284 297.865,142.204 C302.293,143.608 306.775,143.986 311.203,143.068 C315.631,142.15 319.735,140.314 323.785,137.884 C324.379,139.774 324.973,141.556 325.405,143.392 C326.107,145.984 326.593,148.576 327.349,151.114 C327.727,152.356 328.483,153.544 329.023,154.786 C329.347,155.542 329.509,156.352 329.779,157.162 C329.887,157.378 330.157,157.54 330.319,157.756 C330.373,157.486 330.589,157.162 330.535,156.946 C329.833,154.948 329.131,152.95 328.321,150.682 C330.265,149.818 332.263,148.954 334.315,148.036 C334.855,147.82 335.396,147.658 335.881,147.442 C337.339,146.902 337.826,147.01 338.366,148.522 C340.147,153.436 341.983,158.296 342.74,163.48 C343.117,166.18 343.009,168.88 342.47,171.526 C342.254,172.498 341.822,173.47 341.228,174.28 C339.661,176.386 336.908,175.846 334.747,174.766 C333.776,174.28 333.235,173.416 333.235,172.336 C333.235,171.31 333.343,170.284 333.397,169.312 C333.559,167.044 333.181,164.83 332.479,162.67 C332.425,162.562 332.317,162.454 332.209,162.346 C329.887,163.912 327.241,164.344 324.649,165.046 C323.029,165.478 321.355,165.856 319.735,166.234 C318.007,166.612 316.387,165.748 315.307,164.128 C313.309,161.104 311.851,157.918 310.987,154.408 C310.393,152.086 309.475,149.872 308.665,147.604 C308.611,147.442 308.395,147.388 308.017,147.01 C308.125,147.766 308.125,148.198 308.233,148.63 C308.395,149.332 308.611,150.088 308.881,150.79 C309.259,151.816 310.015,152.842 309.961,153.814 C309.907,154.732 308.989,155.596 308.503,156.514 C304.831,163.264 301.213,169.96 297.595,176.71 C296.623,178.492 295.003,180.166 296.461,182.596 C296.299,182.65 296.137,182.704 296.029,182.758 z" fill="#718FC8" id="path3303"/>
      <path d="M257.095,116.23 C256.771,117.526 256.447,118.714 256.069,120.01 C254.773,119.74 253.477,119.416 252.127,119.2 C251.857,119.146 251.425,119.308 251.263,119.524 C249.805,121.198 247.969,121.846 245.755,121.846 C243.649,121.846 241.597,121.684 240.031,120.064 C239.869,119.902 239.761,119.74 239.707,119.686 C240.571,118.984 241.435,118.336 242.245,117.688 C242.191,117.58 242.083,117.418 242.029,117.31 C241.759,117.418 241.489,117.472 241.273,117.634 C238.897,119.686 235.549,118.606 234.847,115.474 C234.361,113.26 234.793,111.1 235.495,109.048 C235.927,107.752 236.413,106.402 237.223,105.322 C237.817,104.512 238.843,103.972 239.761,103.432 C240.031,103.27 240.463,103.432 240.787,103.432 C241.003,103.432 241.219,103.486 241.489,103.486 C241.489,103.216 241.597,102.946 241.489,102.676 C240.355,99.544 239.059,96.466 238.033,93.334 C237.547,91.822 237.385,90.202 237.115,88.582 C236.953,87.664 236.953,86.692 237.979,86.26 C238.843,85.882 240.247,86.53 240.949,87.394 C242.407,89.23 242.947,91.444 243.487,93.712 C244.243,96.628 245.053,99.598 246.835,102.136 C247.321,102.838 248.185,103.378 248.941,103.918 C249.643,104.404 250.507,104.674 251.209,105.106 C252.289,105.808 253.045,106.618 252.991,108.238 C252.883,110.074 253.261,111.91 253.585,113.692 C253.801,114.88 254.935,115.204 255.853,115.744 C256.231,115.96 256.663,116.122 257.149,116.284 z M243.649,115.15 L243.649,115.15 C243.811,118.012 244.243,118.66 246.511,119.416 C247.375,119.686 248.293,120.118 249.319,119.146 C248.563,119.038 247.969,119.038 247.483,118.876 C246.943,118.768 246.403,118.606 245.917,118.336 C244.297,117.526 243.973,115.852 245.161,114.394 C245.917,113.422 246.619,112.45 247.321,111.424 C247.483,111.208 247.483,110.83 247.537,110.506 C247.429,110.452 247.321,110.398 247.213,110.344 C246.943,110.776 246.673,111.154 246.457,111.586 C245.053,114.016 243.001,114.88 241.003,113.8 C240.625,113.584 240.193,112.882 240.301,112.558 C240.679,111.262 241.219,109.966 241.759,108.724 C242.083,107.968 242.623,107.536 243.541,107.374 C244.405,107.266 245.269,106.834 246.025,106.348 C246.835,105.862 247.483,105.106 248.185,104.458 C248.077,104.35 248.023,104.242 247.915,104.134 C247.699,104.242 247.375,104.296 247.213,104.458 C245.863,105.862 244.189,106.618 242.245,106.834 C241.975,106.888 241.651,107.266 241.489,107.59 C240.895,108.724 240.301,109.858 239.761,110.992 C238.789,113.098 239.329,114.34 241.489,114.88 C242.137,115.042 242.893,115.042 243.649,115.096 z" fill="#FDDDCF" id="path3305"/>
      <path d="M357.266,104.134 C359.695,102.46 361.154,99.976 360.29,98.842 C360.02,99.598 359.75,100.246 359.426,100.948 C359.264,101.326 358.993,101.65 358.67,101.92 C356.564,104.08 356.132,104.188 353.918,101.92 C353.756,101.704 353.54,101.542 353.216,101.272 C352.784,102.406 353.54,102.946 354.134,103.324 C355.484,104.188 356.941,104.944 358.346,105.7 C358.832,105.97 359.372,106.132 359.858,106.456 C360.29,106.78 361.046,107.32 360.938,107.59 C360.776,108.292 360.398,109.21 359.858,109.48 C358.777,110.074 357.536,110.074 356.402,109.426 C354.62,108.454 352.784,107.428 350.948,106.51 C350.678,106.402 350.246,106.456 349.976,106.618 C348.194,107.428 346.466,108.238 344.522,109.156 C344.198,107.59 343.874,106.348 343.658,105.16 C344.251,104.836 344.738,104.404 345.277,104.242 C347.924,103.486 348.626,101.272 349.165,99.004 C350.083,95.062 350.894,91.12 351.704,87.178 C351.92,86.206 351.866,85.18 351.974,84.154 C352.027,83.722 352.135,83.29 352.243,82.75 C353.432,83.56 353.918,84.694 353.971,85.774 C354.026,88.798 353.918,91.876 353.864,94.9 C353.864,95.44 354.079,95.926 354.296,96.79 C355.538,95.44 356.078,94.09 356.618,92.686 C357.751,89.662 358.832,86.584 359.966,83.56 C360.128,83.128 360.506,82.696 360.776,82.318 C360.884,82.318 361.046,82.372 361.154,82.372 C361.262,82.966 361.478,83.56 361.478,84.154 C361.639,87.772 360.829,91.228 359.534,94.576 C359.372,95.062 359.534,95.656 359.534,96.196 C359.803,95.764 360.182,95.386 360.344,94.9 C361.532,92.2 362.72,89.5 363.908,86.8 C364.016,86.584 364.124,86.314 364.286,86.098 C364.502,85.882 364.772,85.774 365.042,85.612 C365.15,85.936 365.312,86.26 365.312,86.53 C365.15,87.394 364.988,88.312 364.717,89.176 C364.016,91.498 363.583,93.928 362.126,95.98 C361.91,96.304 361.964,96.79 361.91,97.168 C362.018,97.222 362.18,97.276 362.288,97.33 C362.504,97.006 362.828,96.736 362.99,96.358 C364.232,94.036 365.42,91.714 366.608,89.392 C366.77,89.122 367.04,88.906 367.256,88.69 C367.364,88.69 367.471,88.744 367.579,88.744 C367.579,89.284 367.742,89.878 367.579,90.418 C367.04,92.146 366.553,93.982 365.635,95.548 C364.772,97.006 364.502,98.518 364.178,100.084 C363.746,102.244 362.558,103.756 360.829,104.998 C360.182,105.484 359.588,105.538 358.885,105.106 C358.4,104.782 357.859,104.566 357.158,104.188 z" fill="#FDDDCF" id="path3307"/>
      <path d="M246.349,65.902 C245.593,62.392 244.405,58.99 245.161,55.318 C246.403,49.216 249.481,44.194 253.963,39.928 C255.421,38.524 256.933,37.282 258.985,36.85 C260.335,36.58 261.199,36.904 261.577,38.038 C258.499,38.902 255.907,40.522 253.963,43.006 C251.965,45.598 250.399,48.406 249.265,51.484 C249.373,51.592 249.481,51.7 249.643,51.808 C249.805,51.592 250.075,51.43 250.183,51.16 C252.343,46.192 254.773,41.386 260.227,39.172 C261.847,38.524 262.171,38.578 263.089,40.036 C259.201,43.222 255.907,47.002 252.937,51.052 C250.831,53.968 248.563,56.83 247.645,60.394 C247.159,62.23 246.781,64.012 246.349,65.848 z" fill="#7A563B" id="path3309"/>
      <path d="M246.565,77.296 C242.947,77.566 240.355,75.19 239.599,71.356 C239.275,69.736 239.707,68.386 240.355,67.036 C240.949,65.794 242.569,65.092 243.865,65.416 C245.215,65.74 246.187,67.144 246.133,68.602 C246.079,69.304 246.079,70.006 246.025,70.762 C245.971,71.41 245.971,72.058 245.917,72.598 C244.945,71.464 243.919,70.222 242.839,69.088 C242.731,68.98 242.407,69.142 242.299,69.196 C243.379,70.546 244.405,71.95 245.539,73.408 C244.729,73.732 244.189,73.84 243.703,74.11 C243.487,74.218 243.379,74.596 243.217,74.812 C243.487,74.812 243.703,74.812 243.973,74.758 C244.297,74.704 244.621,74.542 244.945,74.488 C245.701,74.38 246.187,74.596 246.241,75.46 C246.295,76.108 246.457,76.702 246.565,77.404 z" fill="#FDDDCF" id="path3311"/>
      <path d="M258.013,115.69 C258.661,115.798 259.147,115.852 259.903,116.014 C258.499,121.792 257.095,127.516 255.637,133.348 C254.881,133.186 254.179,133.078 253.261,132.916 C254.881,127.084 256.393,121.414 257.959,115.69 z" fill="#91D8F7" id="path3313"/>
      <path d="M343.711,118.444 C342.793,113.8 341.875,109.264 340.957,104.782 C342.415,104.08 342.685,104.026 343.009,105.592 C343.658,108.67 344.467,111.694 345.224,114.772 C345.385,115.366 345.602,115.906 345.871,116.446 C346.303,117.202 345.979,117.634 345.277,117.904 C344.792,118.066 344.306,118.228 343.711,118.444 z" fill="#91D8F7" id="path3315"/>
    </g>
    <path d="M56.809,62.5 C56.755,66.28 60.211,69.088 63.883,68.224 C66.421,67.63 68.257,65.362 68.311,62.77 C68.365,58.99 64.909,56.182 61.237,57.046 C58.699,57.64 56.863,59.908 56.809,62.5 z" fill="url(#Gradient_1)" id="path3354"/>
    <path d="M167.077,58.72 C167.671,63.418 163.675,67.414 158.977,66.82 C155.737,66.388 153.145,63.796 152.767,60.61 C152.173,55.912 156.169,51.916 160.867,52.51 C164.107,52.942 166.699,55.534 167.077,58.72 z" fill="url(#Gradient_2)" id="path3356"/>
    <path d="M210.115,58.72 C210.709,63.418 206.713,67.414 202.015,66.82 C198.775,66.388 196.183,63.796 195.805,60.61 C195.211,55.912 199.207,51.916 203.905,52.51 C207.145,52.942 209.737,55.534 210.115,58.72 z" fill="url(#Gradient_3)" id="path3358"/>
    <path d="M264.493,76.864 C265.087,81.562 261.091,85.558 256.393,84.964 C253.153,84.532 250.561,81.94 250.183,78.754 C249.589,74.056 253.585,70.06 258.283,70.654 C261.523,71.086 264.115,73.678 264.493,76.864 z" fill="url(#Gradient_4)" id="path3360"/>
    <path d="M315.523,80.266 C316.117,84.964 312.121,88.96 307.423,88.366 C304.183,87.934 301.591,85.342 301.213,82.156 C300.619,77.458 304.615,73.462 309.313,74.056 C312.553,74.488 315.145,77.08 315.523,80.266 z" fill="url(#Gradient_5)" id="path3362"/>
  </g>
</svg>
